mtllib materials.mtl
v -0.22 -0.03999996 -0.19
v -0.1720544 0.01810706 -0.1196631
v -0.22 -0.03999996 -0.1325001
v -0.03255975 -0.0161047 -0.1951044
v -0.0294556 -0.0258528 -0.1329016
v 0.03454131 0.04320037 -0.1180388
v 0.03029013 0.07113111 -0.1668305
v -0.02499998 0.0200001 -0.19
v 0.03900921 0.05540454 0.02000305
v -0.04241818 -0.006630421 0.03823608
v -0.02499998 0.0200001 0.04000002
v -0.08999997 -0.03999996 -0.19
v -0.155 -0.03999996 -0.19
v -0.155 -0.03999996 -0.1325
v -0.08999997 -0.03999996 -0.1325
v -0.09000003 -0.03999996 0.03999999
v -0.155 -0.03999996 0.03999996
v -0.155 0.0200001 0.03999999
v -0.08999997 0.0200001 0.03999999
v -0.22 -0.03999996 0.03999996
v -0.02984285 0.2035695 -0.1878742
v -0.09009928 0.1391345 -0.1863605
v -0.02499998 0.14 -0.19
v -0.07015228 0.01740205 -0.1895897
v -0.02499998 0.08000004 -0.19
v 0.01976609 0.09090269 0.03989044
v 0.03111601 0.1587992 0.04650551
v 0.04000002 0.08000004 -0.01749998
v -0.02499998 0.08000004 0.04000002
v -0.02499998 0.14 0.04000002
v -0.08999997 0.08000004 0.03999999
v -0.08999997 0.14 0.03999999
v -0.1297984 0.1363944 0.01167858
v -0.1462081 0.07141471 -0.03580034
v -0.1142681 0.0757004 0.03614268
v -0.04658252 0.06995535 -0.1780836
v -0.1401992 0.1327081 -0.124247
v -0.144343 0.07313752 -0.1272064
v -0.1509003 0.01492596 -0.1338584
v -0.1222028 0.006677866 -0.1690264
v 0.03449816 0.130266 -0.1799838
v 0.03152472 0.2014842 -0.02566442
v 0.03441936 0.1458516 -0.01234773
v -0.02876097 0.2052221 0.04219013
v -0.08062506 0.2053672 0.02831045
v -0.149272 0.125211 -0.03576475
v -0.149968 0.1980149 -0.1290943
v -0.1558577 0.03689802 0.007923365
v -0.1424034 0.07766235 -0.07255071
v -0.1785812 0.02952802 -0.01629788
v -0.1765468 0.02120221 -0.0618743
v -0.22 -0.03999996 -0.01750004
v -0.22 -0.03999996 -0.07500005
v -0.155 -0.03999996 -0.01750004
v -0.155 -0.03999996 -0.07500002
v -0.09000003 -0.03999996 -0.01749998
v -0.09000003 -0.03999996 -0.07499999
v -0.03082931 -0.02775383 -0.07474238
v -0.02663523 -0.02073109 -0.02664211
v 0.03663939 0.04170167 -0.02177176
v 0.05744135 0.1021128 -0.08142862
v 0.05878216 0.09748089 -0.1290427
v 0.05718589 0.1448824 -0.0763357
v 0.04890442 0.1364368 -0.1326059
v 0.02743077 0.2113039 -0.09352571
v 0.04000002 0.1999999 -0.1325
v 0.04485142 0.04327595 -0.06886247
v -0.1480481 0.1980597 -0.0758031
v 0.02933854 0.1900342 -0.1675534
v 0.01866084 0.196102 0.01966602
v -0.02499998 0.1999999 -0.1325
v -0.08999997 0.1999999 -0.01749998
v -0.02499998 0.1999999 -0.01749998
v -0.08999997 0.1999999 -0.07499999
v -0.08999997 0.1999999 -0.1325
v -0.08022213 0.2001421 -0.1730871
v -0.1501563 0.1978523 -0.02140138
v -0.02462423 0.1999377 -0.074049
vn -0.7713251 0.6364413 0
vn 0.7410681 -0.6566942 -0.1398958
vn 0.336012 0.06250872 -0.9397811
vn 0.4497265 -0.3486208 0.8223196
vn 0 -1 0
vn 0 -1 0
vn -4.584973E-07 -4.967046E-07 1
vn 0 0 1
vn 0 -1 0
vn 0 -1 0
vn 0 -4.967049E-07 1
vn -0.05618106 0.02909354 -0.9979966
vn 0.2275368 -0.9737695 0
vn -4.584973E-07 4.554756E-13 1
vn -0.009087054 0 -0.9999588
vn 0.3864904 0 -0.9222934
vn 0.9145944 -0.1877802 0.3581284
vn 0.002447899 0 0.999997
vn -4.584973E-07 0 1
vn -4.584973E-07 0 1
vn -0.5797998 0 0.8147589
vn -0.9103177 -0.06838865 0.4082214
vn -0.4583758 0.07587551 -0.8855137
vn -0.5578501 0.5819702 -0.5917045
vn -0.4061778 0.3655314 -0.8375001
vn -0.05581912 0 -0.9984409
vn 0.1731602 0.04609105 -0.9838146
vn 0.9971772 0.06201619 0.04232675
vn -0.1020801 -0.03926423 0.994001
vn -4.58239E-07 -0.0335604 0.9994367
vn -0.5785109 0.2232651 0.7845239
vn -0.8192845 0.5333237 0.2105674
vn -0.7601019 -0.1604358 -0.6296868
vn -0.6567201 -0.4824544 -0.5796174
vn -0.009690559 0.01049809 -0.999898
vn 0.3864904 0 -0.9222934
vn 0.9028787 0.3481568 0.2521842
vn 0.002447899 0 0.999997
vn -4.584973E-07 0 1
vn -4.584973E-07 0 1
vn 0 0 1
vn -0.7534035 0.573249 0.3221316
vn -0.5342771 0.1551405 -0.8309509
vn 4.182186E-07 0.4098531 -0.9121515
vn 0 0.00714797 -0.9999744
vn -0.8591698 0.4952109 -0.1288156
vn -0.8591131 0.5117857 0
vn 0 -1 0
vn 0 -1 0
vn 0 -1 0
vn 0 -1 0
vn 0.2026677 -0.9792476 0
vn 0.7000245 -0.7128209 0.04303502
vn 0.915984 -0.3960256 0.06431925
vn 0.9580529 0.2269133 -0.1750572
vn 0.9538872 0.1331793 0.2690026
vn -0.9920709 -0.05642708 -0.1122996
vn -0.8596827 0.5021563 -0.09372649
vn -0.815385 0.5789191 0
vn 0 -1 0
vn 0 -1 0
vn 0 -1 0
vn 0 -1 0
vn 0.2026677 -0.9792475 2.100858E-07
vn 0.6846426 -0.7288387 -0.007652186
vn 0.8373549 -0.4397752 -0.3247068
vn 0.7462398 0.1294919 -0.652961
vn 0.9433504 0.1326585 -0.3041244
vn -0.9935782 -0.04122133 -0.105372
vn -0.9972486 0.06789057 0.0297683
vn -0.6322208 0.669884 0.3892973
vn -0.7679231 0.6405421 0
vn 0 -1 0
vn 0 -1 0
vn 0 -1 0
vn 0 -1 0
vn 0.2909395 -0.9567415 0
vn 0.6192524 -0.7224092 0.3076547
vn 0.9647769 -0.1622102 0.2071072
vn 0.9410448 0.0536171 0.3340059
vn 0.9977538 0.03885201 -0.05457061
vn -0.4524476 0.1513959 -0.8788461
vn -0.339703 -0.3195257 -0.8845932
vn -0.5800047 0.4137612 -0.7017095
vn -0.919403 -0.05262054 0.3897812
vn -0.9924179 -0.06065486 -0.1068997
vn -0.8934382 0.4491527 -0.005479455
vn -0.751485 0.5883172 0.2985852
vn -0.7856197 0.6182528 0.0237708
vn -0.1889165 0.2046598 0.9604295
vn -0.2038399 0.3206813 0.9249934
vn -0.2276352 0.8212116 -0.523253
vn -0.305593 0.8409317 -0.4465947
vn -0.3984734 0.5939912 -0.6988515
vn -0.7577085 0.645861 -0.09349592
vn -0.7921088 0.5932173 -0.1437257
vn -0.7219976 0.4206052 0.549373
vn -0.6286276 0.6810127 0.375565
vn 0.9335928 0.1484264 -0.3261503
vn 0.8244514 0.4850526 0.2915542
vn 0.8115124 -0.4738323 -0.3419512
vn 0.7410025 -0.653522 -0.1543512
vn 0.6774505 -0.7295698 0.09374881
vn 0.6816075 -0.7058436 0.1928625
vn 0.9960318 -0.08417787 -0.02889154
vn 0.980305 -0.104698 0.1674528
vn 0.9488584 -0.2454442 -0.1985567
vn 0.4167489 -0.2617791 0.8705125
vn -0.1573559 0.1704687 -0.9727176
vn 0.36673 -0.9161366 -0.1618734
vn 0.5546407 -0.7748319 0.3033302
vn 0.3038307 -0.9461614 0.1116492
vn 0.2272908 -0.9734676 -0.02645082
vn 0.1260556 -0.2239303 -0.9664187
vn 0.953342 -0.1285931 -0.2731352
vn 0.9996075 0.002649497 0.02789111
vn 0.9665769 -0.02461434 0.2551924
vn 0.9135278 0.3604409 -0.1885455
vn 0.8420793 0.4529928 0.2927456
vn 0.9959548 0.08143117 0.03798689
vn 0.1504595 -0.1629982 0.9750864
vn -0.08759316 -0.08208176 0.9927689
vn 0 0.9979287 0.06432976
vn 0 0.9932063 -0.1163668
vn -0.005256572 0.9896334 0.1435202
vn 0 1 0
vn -0.0334062 0.9994419 0
vn 0 0.9604194 -0.278558
vn 0 0.9999939 0.003503969
vn -0.03334074 0.9994338 -0.004530125
vn -0.03906525 0.9952175 -0.08953158
vn 0 1 0
vn -0.03567885 0.9993634 0
vn -0.5206694 0.2611463 -0.8128382
vn -0.2883333 0.2479084 -0.9248813
vn -0.9887496 -0.1452471 0.03574279
vn -0.0330642 0.9994531 0.0003505388
vn -0.9992392 -0.004504243 -0.03873935
vn -0.03344085 0.9994375 0.002514791
vn -0.5614087 -0.1670935 0.8104938
vn -0.02829486 0.9934614 -0.1106063
vn -0.2524763 0.2053054 0.9455715
vn 0.2712902 0.9437507 0.1890403
vn 0.4312364 0.6173752 0.6579384
vn 0.02567304 0.9960055 -0.08552144
vn 0.3209587 0.8808253 -0.3480408
vn 0.3613868 0.2196612 -0.9061725
vn -0.04771468 0.9965155 0.06841166
vn -0.2124646 0.9771658 0.002406108
vn -0.2142161 0.976783 -0.002498252
vn 0.0009677526 0.9999989 -0.001093981
vn 0.0009364403 0.999999 0.001058585
vt 0.4639622 0.5625367
vt 0.4593997 0.5649325
vt 0.4612481 0.5615883
vt 0.5299348 0.5714411
vt 0.5328841 0.5703292
vt 0.5348944 0.5746502
vt 0.4481758 0.5710129
vt 0.4489591 0.567152
vt 0.4503249 0.5658865
vt 0.5694789 0.5558175
vt 0.5683209 0.5507493
vt 0.5692666 0.5520319
vt 0.5220059 0.5217983
vt 0.5209128 0.5187376
vt 0.5236202 0.5177706
vt 0.5220059 0.5217983
vt 0.5236202 0.5177706
vt 0.5247133 0.5208313
vt 0.5539373 0.5581951
vt 0.5553907 0.5552881
vt 0.558074 0.5566298
vt 0.5539373 0.558195
vt 0.558074 0.5566298
vt 0.5566206 0.5595367
vt 0.5209128 0.5187376
vt 0.5198196 0.515677
vt 0.5225272 0.51471
vt 0.5209128 0.5187376
vt 0.5225272 0.51471
vt 0.5236202 0.5177706
vt 0.5553908 0.5552881
vt 0.5568442 0.5523813
vt 0.5580741 0.5566298
vt 0.4348503 0.5648599
vt 0.4364454 0.5607467
vt 0.4378222 0.5637021
vt 0.5264818 0.5377163
vt 0.5292132 0.5368193
vt 0.5301641 0.5397791
vt 0.5539373 0.5581951
vt 0.5566206 0.5595367
vt 0.5551671 0.5624436
vt 0.4438074 0.5601843
vt 0.4446982 0.5622629
vt 0.4420132 0.5636011
vt 0.4525436 0.5740526
vt 0.4480287 0.5733763
vt 0.4505584 0.5717636
vt 0.5714054 0.550771
vt 0.5740172 0.5530369
vt 0.5689379 0.5526329
vt 0.5578999 0.5637105
vt 0.5605837 0.5650511
vt 0.5573872 0.5659564
vt 0.5593038 0.5608783
vt 0.5619871 0.56222
vt 0.5605337 0.5651268
vt 0.5593038 0.5608783
vt 0.5605337 0.5651268
vt 0.5578504 0.5637852
vt 0.542085 0.579623
vt 0.5406724 0.5816235
vt 0.5383558 0.5797174
vt 0.4860987 0.5828781
vt 0.4842677 0.586554
vt 0.4822772 0.5838435
vt 0.4354625 0.553796
vt 0.4302798 0.5503117
vt 0.432918 0.5489057
vt 0.438174 0.5564443
vt 0.4380149 0.5501483
vt 0.4396921 0.551732
vt 0.4352034 0.5504321
vt 0.4358931 0.5531965
vt 0.4336995 0.5551491
vt 0.4372473 0.5610265
vt 0.4413382 0.5626498
vt 0.4386452 0.563972
vt 0.442665 0.5700684
vt 0.4379212 0.5688705
vt 0.4408508 0.5676095
vt 0.5727084 0.54451
vt 0.5714836 0.5485196
vt 0.5700934 0.5460158
vt 0.560028 0.5677315
vt 0.5630229 0.56904
vt 0.5596001 0.5706775
vt 0.5633064 0.5619513
vt 0.5648968 0.5661337
vt 0.5618817 0.5648724
vt 0.5262278 0.5834113
vt 0.5266766 0.5877042
vt 0.5245035 0.5851505
vt 0.4656591 0.5769169
vt 0.4612574 0.5812451
vt 0.4630667 0.5773264
vt 0.4323715 0.5381717
vt 0.427973 0.5356261
vt 0.4310459 0.5343946
vt 0.4484832 0.5201713
vt 0.444388 0.5198567
vt 0.443948 0.515878
vt 0.4434971 0.5600687
vt 0.44563 0.5579068
vt 0.4443816 0.5621499
vt 0.4525436 0.5740526
vt 0.4505584 0.5717636
vt 0.453088 0.5701508
vt 0.5618245 0.502564
vt 0.5639709 0.5018874
vt 0.5626125 0.504664
vt 0.5552161 0.5623698
vt 0.5578999 0.5637105
vt 0.5573872 0.5659564
vt 0.5566206 0.5595367
vt 0.5593038 0.5608783
vt 0.5578504 0.5637852
vt 0.5566206 0.5595367
vt 0.5578504 0.5637852
vt 0.5551671 0.5624436
vt 0.558074 0.5566298
vt 0.5593039 0.5608783
vt 0.5566206 0.5595367
vt 0.4735214 0.5735728
vt 0.4715613 0.5760702
vt 0.4719674 0.5726385
vt 0.4341458 0.5475069
vt 0.4315689 0.5489383
vt 0.4334207 0.5464476
vt 0.4363847 0.5421355
vt 0.4373461 0.54524
vt 0.4353871 0.5475635
vt 0.4444118 0.555216
vt 0.4458593 0.5581259
vt 0.4437314 0.5602927
vt 0.445956 0.5653917
vt 0.4446442 0.561486
vt 0.4468585 0.5621739
vt 0.4513992 0.5658621
vt 0.4528908 0.5621001
vt 0.4555788 0.5631199
vt 0.5252346 0.513743
vt 0.5279422 0.5127761
vt 0.5290353 0.5158367
vt 0.5252346 0.513743
vt 0.5290353 0.5158367
vt 0.5263277 0.5168037
vt 0.5263277 0.5168037
vt 0.5290353 0.5158367
vt 0.5301284 0.5188974
vt 0.5263277 0.5168037
vt 0.5301284 0.5188974
vt 0.5274209 0.5198643
vt 0.5314816 0.5342529
vt 0.5342114 0.5333506
vt 0.532442 0.5371175
vt 0.5439283 0.5635751
vt 0.5463314 0.5631548
vt 0.5480272 0.5672703
vt 0.5547535 0.572267
vt 0.5525157 0.5731145
vt 0.5517491 0.5701904
vt 0.5627813 0.5469018
vt 0.5601946 0.5481566
vt 0.5592777 0.5463596
vt 0.5733518 0.5355186
vt 0.5717908 0.5369592
vt 0.568997 0.5353802
vt 0.4289323 0.5426404
vt 0.4308957 0.5407955
vt 0.4319436 0.5423486
vt 0.4477785 0.5665622
vt 0.448619 0.5633277
vt 0.4512826 0.5644802
vt 0.4552712 0.5653968
vt 0.4571658 0.5620914
vt 0.4598691 0.5630699
vt 0.5225272 0.51471
vt 0.5252346 0.513743
vt 0.5263277 0.5168037
vt 0.5225272 0.51471
vt 0.5263277 0.5168037
vt 0.5236202 0.5177706
vt 0.5236202 0.5177706
vt 0.5263277 0.5168037
vt 0.5274209 0.5198643
vt 0.5236202 0.5177706
vt 0.5274209 0.5198643
vt 0.5247133 0.5208313
vt 0.5287519 0.5351551
vt 0.5314816 0.5342529
vt 0.532442 0.5371175
vt 0.5384079 0.5651248
vt 0.5411324 0.5641013
vt 0.5430427 0.5689355
vt 0.5254597 0.5855982
vt 0.5232299 0.584061
vt 0.5256286 0.5825801
vt 0.4657141 0.5807746
vt 0.466804 0.577132
vt 0.4674578 0.5797603
vt 0.5335301 0.5790498
vt 0.5308696 0.5757648
vt 0.5333635 0.575845
vt 0.4283128 0.5484939
vt 0.4294804 0.5445045
vt 0.432358 0.547916
vt 0.4427415 0.5644152
vt 0.4418839 0.5607365
vt 0.4443661 0.5619059
vt 0.4828817 0.5711221
vt 0.4808365 0.5691707
vt 0.4823296 0.5683558
vt 0.4530693 0.5638777
vt 0.453203 0.5586219
vt 0.4559177 0.5595683
vt 0.5279422 0.5127761
vt 0.5306497 0.5118091
vt 0.5317428 0.5148697
vt 0.5279422 0.5127761
vt 0.5317428 0.5148697
vt 0.5290353 0.5158367
vt 0.5290353 0.5158367
vt 0.5317428 0.5148697
vt 0.5328358 0.5179304
vt 0.5290353 0.5158367
vt 0.5328358 0.5179304
vt 0.5301284 0.5188974
vt 0.5358425 0.5391892
vt 0.5385774 0.538303
vt 0.5364283 0.5424803
vt 0.5560632 0.5560255
vt 0.5591882 0.5546554
vt 0.5601532 0.559764
vt 0.5669716 0.5549102
vt 0.5652177 0.5579308
vt 0.5638181 0.5551946
vt 0.5726677 0.5377258
vt 0.5707214 0.540509
vt 0.5697502 0.5361531
vt 0.5662368 0.5582027
vt 0.5636647 0.5604788
vt 0.5652716 0.5555064
vt 0.4345936 0.5484099
vt 0.4345784 0.554708
vt 0.4320104 0.54983
vt 0.4429388 0.5481895
vt 0.4470381 0.548447
vt 0.4470433 0.549778
vt 0.4348525 0.5575981
vt 0.4346966 0.5562762
vt 0.4368843 0.5543171
vt 0.4818885 0.5822124
vt 0.4823161 0.5848724
vt 0.4798532 0.5857793
vt 0.4317532 0.5459712
vt 0.4289544 0.5424947
vt 0.4319654 0.5421998
vt 0.4544909 0.5675423
vt 0.4536899 0.5705408
vt 0.4510631 0.5697479
vt 0.4718773 0.572644
vt 0.473807 0.5747096
vt 0.4698866 0.5751171
vt 0.4570074 0.5684099
vt 0.4553856 0.5674718
vt 0.4553188 0.5646517
vt 0.5438515 0.5636168
vt 0.5451494 0.5668193
vt 0.5446577 0.5679656
vt 0.5375429 0.567661
vt 0.5380809 0.5665357
vt 0.5412728 0.5675942
vt 0.4478409 0.5319778
vt 0.4438958 0.5354122
vt 0.4432438 0.5343065
vt 0.4483438 0.5401039
vt 0.4467086 0.5384768
vt 0.4507236 0.5351245
vt 0.4385429 0.5506824
vt 0.4379229 0.5479016
vt 0.4401302 0.5458125
vt 0.4567946 0.5588252
vt 0.4548394 0.562108
vt 0.4521412 0.5610389
vt 0.4506428 0.5575615
vt 0.4485635 0.560754
vt 0.4463381 0.5601028
vt 0.4950183 0.5752246
vt 0.4951107 0.5792705
vt 0.4936986 0.580219
vt 0.479186 0.5632722
vt 0.4799118 0.5684794
vt 0.4783207 0.5676097
vt 0.5284806 0.5806823
vt 0.5266397 0.5802186
vt 0.5260721 0.5772083
vt 0.5546331 0.4906099
vt 0.5567032 0.4917856
vt 0.5568783 0.4941504
vt 0.5237967 0.5825074
vt 0.5213712 0.583944
vt 0.5191635 0.5788425
vt 0.5365653 0.5746925
vt 0.5340755 0.5750279
vt 0.5320903 0.5706953
vt 0.549927 0.5654035
vt 0.5478207 0.5665358
vt 0.5457901 0.5617509
vt 0.5566521 0.5634083
vt 0.5544648 0.5636572
vt 0.5526219 0.5596054
vt 0.5606527 0.5609167
vt 0.5595204 0.5593487
vt 0.5616802 0.5589229
vt 0.5640076 0.5528404
vt 0.5657533 0.5512061
vt 0.5671591 0.5525344
vt 0.5391365 0.5773237
vt 0.5416031 0.5768471
vt 0.5417064 0.5799187
vt 0.5704409 0.5556476
vt 0.5682204 0.5560139
vt 0.5680154 0.5522278
vt 0.4405152 0.5539827
vt 0.4405645 0.5571034
vt 0.4390218 0.5581459
vt 0.5240209 0.5516803
vt 0.5210393 0.5527025
vt 0.5203109 0.5496676
vt 0.557091 0.5496548
vt 0.5579793 0.5524229
vt 0.5548503 0.5537837
vt 0.5419135 0.5387859
vt 0.5424364 0.5420876
vt 0.5400316 0.5424978
vt 0.531453 0.5391476
vt 0.5287224 0.5401546
vt 0.527755 0.5372001
vt 0.4550204 0.5703408
vt 0.4525194 0.5720624
vt 0.45049 0.5697778
vt 0.5342945 0.5829472
vt 0.5317998 0.5829023
vt 0.5320523 0.5798765
vt 0.5618179 0.554643
vt 0.5638431 0.5533686
vt 0.5653535 0.5549038
vt 0.569954 0.5482367
vt 0.5681751 0.5470227
vt 0.569512 0.5437958
vt 0.5688269 0.5140333
vt 0.5706624 0.5118205
vt 0.5731447 0.514617
vt 0.5605491 0.5003172
vt 0.5568792 0.4996006
vt 0.5572935 0.4962298
vt 0.5730613 0.5425234
vt 0.5704733 0.544075
vt 0.5680097 0.5418578
vt 0.5631936 0.5574533
vt 0.5623014 0.5561329
vt 0.5617101 0.5532865
vt 0.5621266 0.5666058
vt 0.5617579 0.5695598
vt 0.5589423 0.5675527
vt 0.4775715 0.5282226
vt 0.4787486 0.5251932
vt 0.4814224 0.5259724
vt 0.4591255 0.5175001
vt 0.4614698 0.5177063
vt 0.4605458 0.5208222
vt 0.4814949 0.5293719
vt 0.4782588 0.5282214
vt 0.4789809 0.5254576
vt 0.4725792 0.5198644
vt 0.4752867 0.5208313
vt 0.4741936 0.523892
vt 0.47273 0.5199801
vt 0.4744416 0.5236598
vt 0.4717292 0.5227065
vt 0.4542708 0.5258207
vt 0.4524081 0.5247998
vt 0.4549196 0.5226361
vt 0.475539 0.5208951
vt 0.4772839 0.5220408
vt 0.4744411 0.5239541
vt 0.4749513 0.520686
vt 0.4758771 0.5247052
vt 0.4741225 0.5235743
vt 0.4611475 0.5271133
vt 0.4587788 0.5232376
vt 0.4615897 0.5242912
vt 0.4698716 0.5188974
vt 0.4725792 0.5198644
vt 0.4687786 0.5219581
vt 0.4701408 0.5191711
vt 0.4716724 0.5228986
vt 0.4689597 0.5219462
vt 0.4303439 0.554989
vt 0.4275749 0.5565128
vt 0.425751 0.5528135
vt 0.4289268 0.5596744
vt 0.4280183 0.5572055
vt 0.4307818 0.5556718
vt 0.4338945 0.5457108
vt 0.4318474 0.5483126
vt 0.4298863 0.5465062
vt 0.4727641 0.5199572
vt 0.4753096 0.5207506
vt 0.4744749 0.5236373
vt 0.4328586 0.5518523
vt 0.4321513 0.5559485
vt 0.4300304 0.5542421
vt 0.4703808 0.5190221
vt 0.472911 0.5200264
vt 0.4719074 0.5227517
vt 0.5553585 0.5685614
vt 0.5583846 0.570695
vt 0.5566181 0.5746046
vt 0.4589408 0.5199335
vt 0.4623348 0.5173092
vt 0.4612854 0.5201368
vt 0.5446988 0.5721641
vt 0.5472592 0.5743293
vt 0.5457114 0.5765227
vt 0.4922367 0.5056376
vt 0.4905373 0.5039837
vt 0.4907911 0.5013316
vt 0.5407587 0.521989
vt 0.5396066 0.5243914
vt 0.5373455 0.5236466
vt 0.4632791 0.5187802
vt 0.4604805 0.5176944
vt 0.4619239 0.5154309
vt 0.4555283 0.4964519
vt 0.454243 0.4993836
vt 0.4523554 0.4995865
vt 0.4396971 0.5652243
vt 0.436868 0.5663987
vt 0.4350211 0.5637843
vt 0.480631 0.5274315
vt 0.4804303 0.5300547
vt 0.4777523 0.5292903
vt 0.4667366 0.5432279
vt 0.4666474 0.5403928
vt 0.4694281 0.5412925
vt 0.4636127 0.5395479
vt 0.4662931 0.540448
vt 0.466386 0.543283
vt 0.4725249 0.5197631
vt 0.4713818 0.5228258
vt 0.468725 0.5218581
vt 0.474292 0.5238307
vt 0.471534 0.5228637
vt 0.4726801 0.5198021
o group851385961
g mesh851385961
usemtl mat18
f 3/3/1 2/2/1 1/1/1
f 6/6/2 5/5/2 4/4/2
f 4/9/3 8/8/3 7/7/3
f 11/12/4 10/11/4 9/10/4
f 14/15/5 13/14/5 12/13/5
f 15/18/6 14/17/6 12/16/6
f 18/21/7 17/20/7 16/19/7
f 19/24/8 18/23/8 16/22/8
f 3/27/9 1/26/9 13/25/9
f 14/30/10 3/29/10 13/28/10
f 18/33/11 20/32/11 17/31/11
f 23/36/12 22/35/12 21/34/12
f 5/39/13 15/38/13 12/37/13
f 11/42/14 19/41/14 16/40/14
f 25/45/15 8/44/15 24/43/15
f 25/48/16 23/47/16 7/46/16
f 28/51/17 27/50/17 26/49/17
f 26/54/18 30/53/18 29/52/18
f 30/57/19 32/56/19 31/55/19
f 29/60/20 30/59/20 31/58/20
f 31/63/21 32/62/21 33/61/21
f 35/66/22 33/65/22 34/64/22
f 38/69/23 37/68/23 36/67/23
f 40/72/24 39/71/24 36/70/24
f 36/75/25 24/74/25 40/73/25
f 23/78/26 25/77/26 22/76/26
f 23/81/27 21/80/27 41/79/27
f 43/84/28 42/83/28 27/82/28
f 27/87/29 44/86/29 30/85/29
f 30/90/30 44/89/30 32/88/30
f 32/93/31 45/92/31 33/91/31
f 33/96/32 45/95/32 46/94/32
f 37/99/33 47/98/33 22/97/33
f 37/102/34 22/101/34 36/100/34
f 8/105/35 12/104/35 24/103/35
f 8/108/36 25/107/36 7/106/36
f 28/111/37 26/110/37 9/109/37
f 26/114/38 29/113/38 11/112/38
f 29/117/39 31/116/39 19/115/39
f 11/120/40 29/119/40 19/118/40
f 19/123/41 31/122/41 18/121/41
f 18/126/42 35/125/42 48/124/42
f 2/129/43 38/128/43 39/127/43
f 40/132/44 13/131/44 1/130/44
f 24/135/45 12/134/45 13/133/45
f 51/138/46 50/137/46 49/136/46
f 53/141/47 52/140/47 50/139/47
f 54/144/48 52/143/48 53/142/48
f 55/147/49 54/146/49 53/145/49
f 56/150/50 54/149/50 55/148/50
f 57/153/51 56/152/51 55/151/51
f 58/156/52 56/155/52 57/154/52
f 60/159/53 59/158/53 58/157/53
f 6/162/54 62/161/54 61/160/54
f 62/165/55 64/164/55 63/163/55
f 64/168/56 66/167/56 65/166/56
f 49/171/57 34/170/57 46/169/57
f 2/174/58 51/173/58 49/172/58
f 3/177/59 53/176/59 51/175/59
f 55/180/60 53/179/60 3/178/60
f 14/183/61 55/182/61 3/181/61
f 57/186/62 55/185/62 14/184/62
f 15/189/63 57/188/63 14/187/63
f 58/192/64 57/191/64 15/190/64
f 67/195/65 58/194/65 5/193/65
f 6/198/66 7/197/66 62/196/66
f 62/201/67 7/200/67 64/199/67
f 64/204/68 41/203/68 66/202/68
f 37/207/69 46/206/69 68/205/69
f 38/210/70 49/209/70 37/208/70
f 50/213/71 48/212/71 34/211/71
f 52/216/72 20/215/72 48/214/72
f 17/219/73 20/218/73 52/217/73
f 54/222/74 17/221/74 52/220/74
f 16/225/75 17/224/75 54/223/75
f 56/228/76 16/227/76 54/226/76
f 59/231/77 16/230/77 56/229/77
f 9/234/78 10/233/78 59/232/78
f 67/237/79 61/236/79 28/235/79
f 28/240/80 63/239/80 43/238/80
f 43/243/81 65/242/81 42/241/81
f 38/246/82 36/245/82 39/244/82
f 25/249/83 36/248/83 22/247/83
f 24/252/84 36/251/84 25/250/84
f 33/255/85 46/254/85 34/253/85
f 49/258/86 46/257/86 37/256/86
f 49/261/87 38/260/87 2/259/87
f 35/264/88 34/263/88 48/262/88
f 50/267/89 34/266/89 49/265/89
f 31/270/90 35/269/90 18/268/90
f 33/273/91 35/272/91 31/271/91
f 2/276/92 39/275/92 1/274/92
f 1/279/93 39/278/93 40/277/93
f 13/282/94 40/281/94 24/280/94
f 51/285/95 2/284/95 3/283/95
f 50/288/96 51/287/96 53/286/96
f 48/291/97 50/290/97 52/289/97
f 18/294/98 48/293/98 20/292/98
f 41/297/99 69/296/99 66/295/99
f 42/300/100 70/299/100 27/298/100
f 4/303/101 7/302/101 6/301/101
f 5/306/102 6/305/102 67/304/102
f 58/309/103 67/308/103 60/307/103
f 59/312/104 60/311/104 9/310/104
f 9/315/105 60/314/105 28/313/105
f 28/318/106 60/317/106 67/316/106
f 61/321/107 67/320/107 6/319/107
f 11/324/108 9/323/108 26/322/108
f 8/327/109 4/326/109 12/325/109
f 12/330/110 4/329/110 5/328/110
f 59/333/111 10/332/111 16/331/111
f 58/336/112 59/335/112 56/334/112
f 15/339/113 5/338/113 58/337/113
f 23/342/114 41/341/114 7/340/114
f 7/345/115 41/344/115 64/343/115
f 63/348/116 61/347/116 62/346/116
f 28/351/117 61/350/117 63/349/117
f 65/354/118 63/353/118 64/352/118
f 43/357/119 63/356/119 65/355/119
f 28/360/120 43/359/120 27/358/120
f 16/363/121 10/362/121 11/361/121
f 26/366/122 27/365/122 30/364/122
usemtl mat9
f 21/369/123 71/368/123 66/367/123
f 73/372/124 72/371/124 45/370/124
f 73/375/125 42/374/125 65/373/125
f 71/378/126 75/377/126 74/376/126
f 74/381/127 75/380/127 68/379/127
f 71/384/128 65/383/128 66/382/128
f 71/387/129 76/386/129 75/385/129
f 75/390/130 76/389/130 47/388/130
f 73/393/131 44/392/131 42/391/131
f 73/396/132 74/395/132 72/394/132
f 72/399/133 74/398/133 77/397/133
f 47/402/134 76/401/134 22/400/134
f 22/405/135 76/404/135 21/403/135
f 68/408/136 47/407/136 37/406/136
f 75/411/137 47/410/137 68/409/137
f 77/414/138 68/413/138 46/412/138
f 74/417/139 68/416/139 77/415/139
f 45/420/140 77/419/140 46/418/140
f 72/423/141 77/422/141 45/421/141
f 44/426/142 45/425/142 32/424/142
f 44/429/143 70/428/143 42/427/143
f 27/432/144 70/431/144 44/430/144
f 45/435/145 44/434/145 73/433/145
f 66/438/146 69/437/146 21/436/146
f 21/441/147 69/440/147 41/439/147
f 71/444/148 21/443/148 76/442/148
f 71/447/149 78/446/149 65/445/149
f 65/450/150 78/449/150 73/448/150
f 73/453/151 78/452/151 74/451/151
f 74/456/152 78/455/152 71/454/152
