mtllib materials.mtl
v 0.246499 0.1307933 0.03742576
v 0.2491955 -0.07510459 0.04025629
v 0.2495225 -0.07495618 0.06031308
v 0.246387 0.1310556 0.05747998
v 0.2448192 0.2340615 0.05606341
v 0.2451507 0.2337422 0.0360105
v 0.1695225 -0.07495618 0.06031308
v 0.1691955 -0.07510459 0.04025626
v 0.1665043 0.1303067 0.0369882
v 0.1651587 0.2330123 0.03535417
v 0.1648272 0.2333314 0.05540711
v 0.1663923 0.130569 0.05704242
v 0.2031962 0.3364227 0.03985742
v 0.203519 0.3361675 0.0560348
v 0.1422893 0.1315292 0.03745005
v 0.1449858 -0.07436872 0.04028061
v 0.1453128 -0.0742203 0.06033739
v 0.1421773 0.1317915 0.05750427
v 0.1406095 0.2347974 0.05608767
v 0.140941 0.2344781 0.03603476
v 0.06531274 -0.0742203 0.06033739
v 0.06498581 -0.07436872 0.04028058
v 0.0622946 0.1310426 0.03701249
v 0.06094903 0.2337482 0.03537846
v 0.06061751 0.2340673 0.05543137
v 0.06218258 0.1313049 0.05706671
v 0.09898648 0.3371586 0.03988168
v 0.0993093 0.3369033 0.05605906
v 0.03759402 0.1315292 0.03745005
v 0.04029053 -0.07436872 0.04028061
v 0.04061747 -0.0742203 0.06033739
v 0.03748202 0.1317915 0.05750427
v 0.03591427 0.2347974 0.05608767
v 0.03624579 0.2344781 0.03603476
v -0.03938255 -0.0742203 0.06033739
v -0.03970948 -0.07436872 0.04028058
v -0.04240064 0.1310426 0.03701249
v -0.0437462 0.2337482 0.03537846
v -0.04407772 0.2340673 0.05543137
v -0.04251267 0.1313049 0.05706671
v -0.005708739 0.3371586 0.03988168
v -0.00538592 0.3369033 0.05605906
v -0.0677107 0.1315292 0.03745005
v -0.06501418 -0.07436872 0.04028061
v -0.06468725 -0.0742203 0.06033739
v -0.06782272 0.1317915 0.05750427
v -0.06939045 0.2347974 0.05608767
v -0.06905894 0.2344781 0.03603476
v -0.1446873 -0.0742203 0.06033742
v -0.1450142 -0.07436872 0.04028058
v -0.1477054 0.1310426 0.03701249
v -0.1490509 0.2337482 0.03537846
v -0.1493824 0.2340673 0.0554314
v -0.1478174 0.1313049 0.05706671
v -0.1110135 0.3371586 0.03988168
v -0.1106906 0.3369033 0.05605906
v -0.172406 0.1315292 0.03745008
v -0.1697094 -0.07436872 0.04028061
v -0.1693825 -0.0742203 0.06033739
v -0.172518 0.1317915 0.0575043
v -0.1740857 0.2347974 0.05608773
v -0.1737542 0.2344781 0.03603482
v -0.2493825 -0.0742203 0.06033739
v -0.2497095 -0.07436872 0.04028058
v -0.2524006 0.1310426 0.03701252
v -0.2537462 0.2337482 0.03537849
v -0.2540777 0.2340673 0.05543143
v -0.2525127 0.1313049 0.05706674
v -0.2157087 0.3371586 0.03988174
v -0.2153859 0.3369033 0.05605912
v 0.2430738 0.1315924 0.02793783
v 0.2430738 0.1315924 0.03793782
v 0.2430738 0.1715925 0.03793782
v 0.2430738 0.1715925 0.02793783
v -0.2469262 0.1315925 0.02793783
v -0.2469262 0.1715926 0.02793783
v -0.2469262 0.1715926 0.03793782
v -0.2469262 0.1315925 0.03793782
vn 0.9997829 0.01286832 -0.01639198
vn 0.9998686 0.01529208 0.005385485
vn 0.9998686 0.01529208 0.005385485
vn 0.9997782 0.01331777 0.01631663
vn -0.9997832 -0.01283793 0.01639173
vn -0.9997832 -0.0128376 0.01639465
vn -0.9997475 -0.01548522 -0.01628168
vn -0.9997475 -0.01548536 -0.01628234
vn -2.756549E-09 -0.9999726 0.007399555
vn 0 -0.9999726 0.007399566
vn 0.005552415 -0.01367306 -0.9998912
vn 3.724818E-07 -0.01590783 -0.9998735
vn 0 0.01591164 0.9998734
vn -0.005552373 0.01366611 0.9998912
vn 0.00832841 -0.01363631 -0.9998723
vn 0.005565389 -0.0158347 -0.9998592
vn 0.007827247 0.04063099 -0.9991436
vn -0.008347399 0.01578386 0.9998406
vn -0.005552373 0.01366626 0.9998912
vn -0.008176717 -0.003027158 0.999962
vn 0.925472 0.3786098 -0.01249449
vn 0.926995 0.3749571 0.009356054
vn -0.9385894 0.3441894 0.02415968
vn -0.9356945 0.3521813 -0.0210738
vn 0.9997829 0.01286832 -0.01639198
vn 0.9998686 0.01529208 0.005385485
vn 0.9998686 0.01529208 0.005385485
vn 0.9997782 0.01331778 0.01631663
vn -0.9997832 -0.01283793 0.01639173
vn -0.9997832 -0.0128376 0.01639462
vn -0.9997475 -0.01548523 -0.01628171
vn -0.9997475 -0.01548536 -0.01628235
vn -2.756549E-09 -0.9999726 0.007399555
vn 0 -0.9999726 0.007399566
vn 0.005552416 -0.0136732 -0.9998912
vn 3.724818E-07 -0.01590797 -0.9998735
vn 0 0.01591178 0.9998734
vn -0.005552374 0.01366626 0.9998912
vn 0.00832804 -0.0136366 -0.9998723
vn 0.005565389 -0.0158347 -0.9998592
vn 0.007826876 0.04063084 -0.9991436
vn -0.008347401 0.01578415 0.9998406
vn -0.005552374 0.01366655 0.9998912
vn -0.008176717 -0.003027158 0.999962
vn 0.925472 0.3786098 -0.01249449
vn 0.926995 0.3749571 0.009356054
vn -0.9385894 0.3441894 0.02415967
vn -0.9356945 0.3521813 -0.02107383
vn 0.9997829 0.01286817 -0.01639198
vn 0.9998686 0.01529177 0.005384002
vn 0.9998686 0.01529206 0.005383999
vn 0.9997782 0.01331749 0.01631664
vn -0.9997832 -0.01283771 0.01639173
vn -0.9997832 -0.01283747 0.01639386
vn -0.9997475 -0.01548508 -0.01628171
vn -0.9997475 -0.01548514 -0.01628198
vn -2.756549E-09 -0.9999726 0.007399555
vn 0 -0.9999726 0.007399566
vn 0.005552416 -0.0136732 -0.9998912
vn 3.724818E-07 -0.01590797 -0.9998735
vn 0 0.01591178 0.9998734
vn -0.005552372 0.01366626 0.9998912
vn 0.00832804 -0.01363661 -0.9998723
vn 0.005565389 -0.01583471 -0.9998592
vn 0.007826876 0.04063084 -0.9991436
vn -0.008347401 0.01578415 0.9998406
vn -0.005552374 0.01366655 0.9998912
vn -0.008176717 -0.003027157 0.999962
vn 0.9254721 0.3786097 -0.0124945
vn 0.926995 0.3749569 0.009356056
vn -0.9385893 0.3441895 0.02415967
vn -0.9356944 0.3521814 -0.02107383
vn 0.9997829 0.01286817 -0.01639198
vn 0.9998686 0.01529193 0.005385486
vn 0.9998686 0.01529179 0.005385488
vn 0.9997782 0.01331762 0.01631589
vn -0.9997832 -0.01283774 0.01639208
vn -0.9997832 -0.01283745 0.01639461
vn -0.9997475 -0.015485 -0.01628131
vn -0.9997475 -0.01548522 -0.01628236
vn -2.756544E-09 -0.9999726 0.007399544
vn 2.82271E-09 -0.9999726 0.007399566
vn 0.005552416 -0.01367321 -0.9998912
vn 3.724818E-07 -0.01590797 -0.9998735
vn 3.724818E-07 0.01591193 0.9998734
vn -0.005552374 0.01366626 0.9998912
vn 0.00832804 -0.0136366 -0.9998723
vn 0.005565389 -0.01583471 -0.9998592
vn 0.007826876 0.04063083 -0.9991436
vn -0.008347024 0.01578387 0.9998406
vn -0.005552374 0.01366655 0.9998912
vn -0.008176344 -0.003027007 0.999962
vn 0.9254721 0.3786097 -0.0124945
vn 0.926995 0.374957 0.009355366
vn -0.9385893 0.3441896 0.02415968
vn -0.9356945 0.3521815 -0.02107345
vn 0.9997829 0.01286814 -0.01639198
vn 0.9998686 0.0152919 0.005385487
vn 0.9998686 0.0152919 0.005385487
vn 0.9997782 0.01331759 0.01631664
vn -0.9997832 -0.01283775 0.01639173
vn -0.9997832 -0.01283742 0.01639464
vn -0.9997475 -0.01548504 -0.01628169
vn -0.9997475 -0.01548518 -0.01628234
vn -2.756549E-09 -0.9999726 0.007399555
vn 0 -0.9999726 0.007399566
vn 0.005552415 -0.01367306 -0.9998912
vn 3.724818E-07 -0.01590783 -0.9998735
vn 0 0.01591164 0.9998734
vn -0.005552373 0.01366612 0.9998912
vn 0.00832841 -0.01363631 -0.9998723
vn 0.005565389 -0.01583471 -0.9998592
vn 0.007827247 0.04063099 -0.9991436
vn -0.008347399 0.01578386 0.9998406
vn -0.005552373 0.01366626 0.9998912
vn -0.008176717 -0.003027157 0.999962
vn 0.9254721 0.3786097 -0.01249447
vn 0.926995 0.3749569 0.009356056
vn -0.9385893 0.3441895 0.02415968
vn -0.9356944 0.3521814 -0.0210738
vn 1 0 0
vn 1 0 0
vn -1 -3.725283E-07 0
vn -1 -3.725283E-07 0
vn -2.432843E-07 -1 0
vn -2.432843E-07 -1 0
vn 2.432843E-07 1 0
vn 2.432843E-07 1 0
vn 0 0 -1
vn 0 0 -1
vn 0 0 1
vn 0 0 1
vt 0.558369 0.5435714
vt 0.552585 0.5350527
vt 0.5534111 0.5344839
vt 0.5592822 0.5419443
vt 0.5540355 0.5330204
vt 0.5600931 0.5413542
vt 0.5592822 0.5419443
vt 0.5600931 0.5413542
vt 0.5631219 0.5455211
vt 0.5596147 0.5414077
vt 0.5634983 0.5449367
vt 0.562693 0.5455345
vt 0.4466138 0.5345657
vt 0.4474399 0.5351345
vt 0.441688 0.543646
vt 0.4466139 0.5345659
vt 0.4416882 0.5436462
vt 0.4388122 0.5479019
vt 0.4372015 0.5453596
vt 0.4363975 0.5447601
vt 0.4394703 0.5406406
vt 0.4372015 0.5453595
vt 0.4394703 0.5406405
vt 0.4456159 0.5324014
vt 0.5295019 0.514292
vt 0.5281689 0.5105206
vt 0.5291199 0.5102018
vt 0.5295019 0.514292
vt 0.5291199 0.5102018
vt 0.5304528 0.5139732
vt 0.4580638 0.5474759
vt 0.4488156 0.5520028
vt 0.4470316 0.5484228
vt 0.4580442 0.5473294
vt 0.4470119 0.5482746
vt 0.4562393 0.5437598
vt 0.5419407 0.5473402
vt 0.5437456 0.5437706
vt 0.552988 0.5482683
vt 0.541921 0.5474926
vt 0.5529681 0.5484225
vt 0.5511842 0.5520025
vt 0.4488643 0.5520808
vt 0.444241 0.554346
vt 0.4424664 0.5507613
vt 0.4488927 0.5520117
vt 0.4424946 0.5506937
vt 0.4471066 0.5484328
vt 0.442322 0.5539228
vt 0.4367844 0.554284
vt 0.4406061 0.5503096
vt 0.5528426 0.5485131
vt 0.5574613 0.5507673
vt 0.5556844 0.5543509
vt 0.5529681 0.5484225
vt 0.5558158 0.5542575
vt 0.5511842 0.5520025
vt 0.5581387 0.5506477
vt 0.5618712 0.5546788
vt 0.5563816 0.5542409
vt 0.5696593 0.4923425
vt 0.5694841 0.4931324
vt 0.5640517 0.4919987
vt 0.5642116 0.4918691
vt 0.5695652 0.4931602
vt 0.5639563 0.492839
vt 0.4501061 0.5621961
vt 0.447782 0.5671962
vt 0.4470375 0.5668795
vt 0.447798 0.5603205
vt 0.4445783 0.5649013
vt 0.4468814 0.5599136
vt 0.5583595 0.5437047
vt 0.5525755 0.5351861
vt 0.5534016 0.5346172
vt 0.5593755 0.54202
vt 0.5541287 0.5330961
vt 0.5601863 0.5414299
vt 0.5593755 0.54202
vt 0.5601863 0.5414299
vt 0.5632151 0.5455968
vt 0.5597478 0.5414395
vt 0.5636314 0.5449685
vt 0.562826 0.5455662
vt 0.4466234 0.5346989
vt 0.4474495 0.5352677
vt 0.4416976 0.5437792
vt 0.4466235 0.5346991
vt 0.4416977 0.5437794
vt 0.4388218 0.5480351
vt 0.4370616 0.5454001
vt 0.4362576 0.5448006
vt 0.4393304 0.5406811
vt 0.4370616 0.5454
vt 0.4393304 0.540681
vt 0.4454761 0.5324419
vt 0.5277669 0.5093788
vt 0.526434 0.5056074
vt 0.527385 0.5052887
vt 0.5277669 0.5093788
vt 0.527385 0.5052887
vt 0.5287179 0.50906
vt 0.4556792 0.542843
vt 0.4464309 0.54737
vt 0.444647 0.54379
vt 0.4556603 0.5426961
vt 0.444628 0.5436413
vt 0.4538554 0.5391265
vt 0.5443246 0.5427068
vt 0.5461295 0.5391372
vt 0.5553719 0.543635
vt 0.5443056 0.5428597
vt 0.5553527 0.5437896
vt 0.5535688 0.5473697
vt 0.4464779 0.5474489
vt 0.4418546 0.5497142
vt 0.44008 0.5461295
vt 0.4465053 0.5473803
vt 0.4401072 0.5460624
vt 0.4447192 0.5438014
vt 0.4400094 0.5492536
vt 0.4344718 0.5496149
vt 0.4382935 0.5456405
vt 0.5552318 0.5438827
vt 0.5598504 0.5461369
vt 0.5580736 0.5497205
vt 0.5553527 0.5437896
vt 0.5582004 0.5496246
vt 0.5535688 0.5473697
vt 0.5605032 0.5460047
vt 0.5642357 0.5500358
vt 0.5587461 0.5495979
vt 0.5715945 0.4928775
vt 0.5714193 0.4936674
vt 0.565987 0.4925337
vt 0.5661551 0.4922897
vt 0.5715086 0.4935808
vt 0.5658998 0.4932595
vt 0.4508901 0.5606168
vt 0.4485661 0.5656168
vt 0.4478215 0.5653002
vt 0.4484488 0.558638
vt 0.4452291 0.5632187
vt 0.4475322 0.558231
vt 0.5583279 0.5438092
vt 0.5525438 0.5352904
vt 0.5533699 0.5347216
vt 0.5594459 0.5420673
vt 0.5541992 0.5331435
vt 0.5602567 0.5414773
vt 0.5594459 0.5420673
vt 0.5602568 0.5414773
vt 0.5632855 0.5456442
vt 0.559858 0.5414428
vt 0.5637416 0.5449718
vt 0.5629362 0.5455695
vt 0.4466552 0.5348032
vt 0.4474813 0.535372
vt 0.4417294 0.5438834
vt 0.4466553 0.5348033
vt 0.4417295 0.5438836
vt 0.4388536 0.5481393
vt 0.4369447 0.5454122
vt 0.4361406 0.5448128
vt 0.4392134 0.5406933
vt 0.4369446 0.5454122
vt 0.4392134 0.5406932
vt 0.4453591 0.5324541
vt 0.5260226 0.5044432
vt 0.5246896 0.5006719
vt 0.5256406 0.5003531
vt 0.5260226 0.5044432
vt 0.5256406 0.5003531
vt 0.5269735 0.5041245
vt 0.4533164 0.5381719
vt 0.4440682 0.5426989
vt 0.4422842 0.5391189
vt 0.4532983 0.5380245
vt 0.4422659 0.5389697
vt 0.4514934 0.5344549
vt 0.5466866 0.5380353
vt 0.5484915 0.5344657
vt 0.557734 0.5389634
vt 0.5466683 0.5381886
vt 0.5577155 0.5391185
vt 0.5559316 0.5426986
vt 0.4441133 0.5427788
vt 0.4394901 0.5450441
vt 0.4377155 0.5414594
vt 0.4441397 0.5427106
vt 0.4377416 0.5413926
vt 0.4423536 0.5391317
vt 0.4377193 0.5445465
vt 0.4321817 0.5449079
vt 0.4360034 0.5409334
vt 0.5575991 0.539214
vt 0.5622177 0.5414683
vt 0.560441 0.5450518
vt 0.5577155 0.5391185
vt 0.5605631 0.5449535
vt 0.5559316 0.5426986
vt 0.5628457 0.5413234
vt 0.5665783 0.5453546
vt 0.5610886 0.5449167
vt 0.5735052 0.4934083
vt 0.57333 0.4941982
vt 0.5678976 0.4930645
vt 0.568074 0.4927053
vt 0.5734276 0.4939964
vt 0.5678188 0.4936751
vt 0.451692 0.5589983
vt 0.4493679 0.5639985
vt 0.4486234 0.5636817
vt 0.4491183 0.5569167
vt 0.4458985 0.5614974
vt 0.4482017 0.5565097
vt 0.558296 0.5439141
vt 0.5525119 0.5353954
vt 0.553338 0.5348266
vt 0.5595169 0.5421147
vt 0.5542701 0.5331908
vt 0.5603278 0.5415246
vt 0.5595169 0.5421147
vt 0.5603278 0.5415246
vt 0.5633565 0.5456915
vt 0.5599688 0.5414461
vt 0.5638524 0.5449752
vt 0.5630471 0.5455729
vt 0.4466872 0.5349081
vt 0.4475133 0.5354769
vt 0.4417614 0.5439883
vt 0.4466873 0.5349082
vt 0.4417616 0.5439885
vt 0.4388856 0.5482443
vt 0.436827 0.5454245
vt 0.436023 0.5448251
vt 0.4390958 0.5407056
vt 0.4368269 0.5454245
vt 0.4390957 0.5407054
vt 0.4452414 0.5324663
vt 0.524268 0.4994789
vt 0.5229351 0.4957075
vt 0.5238861 0.4953888
vt 0.524268 0.4994789
vt 0.5238861 0.4953888
vt 0.525219 0.4991601
vt 0.4509399 0.5334737
vt 0.4416916 0.5380006
vt 0.4399077 0.5344205
vt 0.4509225 0.5333258
vt 0.4398901 0.5342709
vt 0.4491176 0.5297561
vt 0.5490624 0.5333365
vt 0.5508673 0.5297669
vt 0.5601097 0.5342647
vt 0.5490448 0.5334904
vt 0.560092 0.5344203
vt 0.5583081 0.5380002
vt 0.441735 0.5380816
vt 0.4371118 0.5403469
vt 0.4353372 0.5367622
vt 0.4417604 0.5380138
vt 0.4353622 0.5366958
vt 0.4399742 0.5344349
vt 0.4354159 0.5398121
vt 0.4298782 0.5401734
vt 0.4337 0.5361989
vt 0.5599803 0.5345182
vt 0.5645989 0.5367724
vt 0.5628221 0.540356
vt 0.560092 0.5344203
vt 0.5629397 0.5402552
vt 0.5583081 0.5380002
vt 0.5652018 0.536615
vt 0.5689344 0.5406461
vt 0.5634447 0.5402083
vt 0.575427 0.4939421
vt 0.5752518 0.4947321
vt 0.5698195 0.4935983
vt 0.5700041 0.4931232
vt 0.5753577 0.4944144
vt 0.5697489 0.4940931
vt 0.4524985 0.5573705
vt 0.4501745 0.5623706
vt 0.4494299 0.5620539
vt 0.4497918 0.5551854
vt 0.446572 0.5597662
vt 0.4488751 0.5547785
vt 0.5582642 0.5440185
vt 0.5524802 0.5354998
vt 0.5533063 0.5349309
vt 0.5595875 0.5421619
vt 0.5543407 0.5332381
vt 0.5603983 0.5415719
vt 0.5595875 0.5421619
vt 0.5603983 0.5415719
vt 0.5634271 0.5457388
vt 0.560079 0.5414494
vt 0.5639626 0.5449784
vt 0.5631573 0.5455762
vt 0.446719 0.5350122
vt 0.4475451 0.5355811
vt 0.4417932 0.5440925
vt 0.4467191 0.5350125
vt 0.4417934 0.5440928
vt 0.4389175 0.5483485
vt 0.43671 0.5454367
vt 0.4359059 0.5448372
vt 0.4389788 0.5407177
vt 0.4367099 0.5454366
vt 0.4389787 0.5407176
vt 0.4451244 0.5324785
vt 0.5225236 0.4945434
vt 0.5211906 0.490772
vt 0.5221417 0.4904532
vt 0.5225236 0.4945434
vt 0.5221417 0.4904532
vt 0.5234746 0.4942246
vt 0.4485771 0.5288026
vt 0.4393288 0.5333295
vt 0.4375449 0.5297495
vt 0.4485604 0.5286542
vt 0.4375281 0.5295994
vt 0.4467556 0.5250846
vt 0.5514244 0.5286649
vt 0.5532293 0.5250953
vt 0.5624717 0.5295931
vt 0.5514076 0.5288193
vt 0.5624548 0.5297491
vt 0.5606709 0.5333291
vt 0.4393705 0.5334115
vt 0.4347472 0.5356768
vt 0.4329726 0.5320921
vt 0.4393948 0.5333441
vt 0.4329966 0.5320261
vt 0.4376086 0.5297651
vt 0.4331257 0.535105
vt 0.4275881 0.5354663
vt 0.4314099 0.5314919
vt 0.5623476 0.5298495
vt 0.5669662 0.5321037
vt 0.5651894 0.5356873
vt 0.5624548 0.5297491
vt 0.5653025 0.5355841
vt 0.5606709 0.5333291
vt 0.5675443 0.5319338
vt 0.5712768 0.5359649
vt 0.5657872 0.5355271
vt 0.5773376 0.4944728
vt 0.5771624 0.4952627
vt 0.5717301 0.4941291
vt 0.571923 0.4935388
vt 0.5772766 0.49483
vt 0.5716678 0.4945087
vt 0.4533004 0.5557521
vt 0.4509764 0.5607522
vt 0.4502318 0.5604355
vt 0.4504612 0.5534642
vt 0.4472414 0.5580449
vt 0.4495446 0.5530572
vt 0.5582982 0.5437672
vt 0.5587051 0.5434766
vt 0.5598676 0.5451041
vt 0.5582982 0.5437672
vt 0.5598676 0.5451041
vt 0.5594607 0.5453947
vt 0.4417018 0.5437672
vt 0.4405393 0.5453947
vt 0.4401324 0.5451041
vt 0.4417018 0.5437672
vt 0.4401324 0.5451041
vt 0.4412949 0.5434766
vt 0.5284541 0.5142606
vt 0.5202138 0.491188
vt 0.5206847 0.4910198
vt 0.5284541 0.5142606
vt 0.5206847 0.4910198
vt 0.5289249 0.5140925
vt 0.4715459 0.5142606
vt 0.4710751 0.5140925
vt 0.4793153 0.4910198
vt 0.4715459 0.5142606
vt 0.4793153 0.4910198
vt 0.4797862 0.491188
vt 0.4481232 0.5516531
vt 0.4463344 0.5525476
vt 0.4353776 0.5306342
vt 0.4481232 0.5516531
vt 0.4353776 0.5306342
vt 0.4371665 0.5297397
vt 0.5518768 0.5516531
vt 0.5628335 0.5297397
vt 0.5646224 0.5306342
vt 0.5518768 0.5516531
vt 0.5646224 0.5306342
vt 0.5536656 0.5525476
o group537809148
g mesh537809148
usemtl mat19
f 3/3/1 2/2/1 1/1/1
f 4/6/2 3/5/2 1/4/2
f 5/9/3 4/8/3 1/7/3
f 6/12/4 5/11/4 1/10/4
f 9/15/5 8/14/5 7/13/5
f 10/18/6 9/17/6 7/16/6
f 12/21/7 11/20/7 10/19/7
f 7/24/8 12/23/8 10/22/8
f 7/27/9 8/26/9 2/25/9
f 3/30/10 7/29/10 2/28/10
f 9/33/11 1/32/11 2/31/11
f 8/36/12 9/35/12 2/34/12
f 12/39/13 7/38/13 3/37/13
f 4/42/14 12/41/14 3/40/14
f 10/45/15 6/44/15 1/43/15
f 9/48/16 10/47/16 1/46/16
f 10/51/17 13/50/17 6/49/17
f 5/54/18 11/53/18 12/52/18
f 4/57/19 5/56/19 12/55/19
f 5/60/20 14/59/20 11/58/20
f 6/63/21 13/62/21 14/61/21
f 6/66/22 14/65/22 5/64/22
f 14/69/23 13/68/23 10/67/23
f 11/72/24 14/71/24 10/70/24
o group1435938457
g mesh1435938457
usemtl mat19
f 17/75/25 16/74/25 15/73/25
f 18/78/26 17/77/26 15/76/26
f 19/81/27 18/80/27 15/79/27
f 20/84/28 19/83/28 15/82/28
f 23/87/29 22/86/29 21/85/29
f 24/90/30 23/89/30 21/88/30
f 26/93/31 25/92/31 24/91/31
f 21/96/32 26/95/32 24/94/32
f 21/99/33 22/98/33 16/97/33
f 17/102/34 21/101/34 16/100/34
f 23/105/35 15/104/35 16/103/35
f 22/108/36 23/107/36 16/106/36
f 26/111/37 21/110/37 17/109/37
f 18/114/38 26/113/38 17/112/38
f 24/117/39 20/116/39 15/115/39
f 23/120/40 24/119/40 15/118/40
f 24/123/41 27/122/41 20/121/41
f 19/126/42 25/125/42 26/124/42
f 18/129/43 19/128/43 26/127/43
f 19/132/44 28/131/44 25/130/44
f 20/135/45 27/134/45 28/133/45
f 20/138/46 28/137/46 19/136/46
f 28/141/47 27/140/47 24/139/47
f 25/144/48 28/143/48 24/142/48
o group603585577
g mesh603585577
usemtl mat19
f 31/147/49 30/146/49 29/145/49
f 32/150/50 31/149/50 29/148/50
f 33/153/51 32/152/51 29/151/51
f 34/156/52 33/155/52 29/154/52
f 37/159/53 36/158/53 35/157/53
f 38/162/54 37/161/54 35/160/54
f 40/165/55 39/164/55 38/163/55
f 35/168/56 40/167/56 38/166/56
f 35/171/57 36/170/57 30/169/57
f 31/174/58 35/173/58 30/172/58
f 37/177/59 29/176/59 30/175/59
f 36/180/60 37/179/60 30/178/60
f 40/183/61 35/182/61 31/181/61
f 32/186/62 40/185/62 31/184/62
f 38/189/63 34/188/63 29/187/63
f 37/192/64 38/191/64 29/190/64
f 38/195/65 41/194/65 34/193/65
f 33/198/66 39/197/66 40/196/66
f 32/201/67 33/200/67 40/199/67
f 33/204/68 42/203/68 39/202/68
f 34/207/69 41/206/69 42/205/69
f 34/210/70 42/209/70 33/208/70
f 42/213/71 41/212/71 38/211/71
f 39/216/72 42/215/72 38/214/72
o group1123367871
g mesh1123367871
usemtl mat19
f 45/219/73 44/218/73 43/217/73
f 46/222/74 45/221/74 43/220/74
f 47/225/75 46/224/75 43/223/75
f 48/228/76 47/227/76 43/226/76
f 51/231/77 50/230/77 49/229/77
f 52/234/78 51/233/78 49/232/78
f 54/237/79 53/236/79 52/235/79
f 49/240/80 54/239/80 52/238/80
f 49/243/81 50/242/81 44/241/81
f 45/246/82 49/245/82 44/244/82
f 51/249/83 43/248/83 44/247/83
f 50/252/84 51/251/84 44/250/84
f 54/255/85 49/254/85 45/253/85
f 46/258/86 54/257/86 45/256/86
f 52/261/87 48/260/87 43/259/87
f 51/264/88 52/263/88 43/262/88
f 52/267/89 55/266/89 48/265/89
f 47/270/90 53/269/90 54/268/90
f 46/273/91 47/272/91 54/271/91
f 47/276/92 56/275/92 53/274/92
f 48/279/93 55/278/93 56/277/93
f 48/282/94 56/281/94 47/280/94
f 56/285/95 55/284/95 52/283/95
f 53/288/96 56/287/96 52/286/96
o group471251186
g mesh471251186
usemtl mat19
f 59/291/97 58/290/97 57/289/97
f 60/294/98 59/293/98 57/292/98
f 61/297/99 60/296/99 57/295/99
f 62/300/100 61/299/100 57/298/100
f 65/303/101 64/302/101 63/301/101
f 66/306/102 65/305/102 63/304/102
f 68/309/103 67/308/103 66/307/103
f 63/312/104 68/311/104 66/310/104
f 63/315/105 64/314/105 58/313/105
f 59/318/106 63/317/106 58/316/106
f 65/321/107 57/320/107 58/319/107
f 64/324/108 65/323/108 58/322/108
f 68/327/109 63/326/109 59/325/109
f 60/330/110 68/329/110 59/328/110
f 66/333/111 62/332/111 57/331/111
f 65/336/112 66/335/112 57/334/112
f 66/339/113 69/338/113 62/337/113
f 61/342/114 67/341/114 68/340/114
f 60/345/115 61/344/115 68/343/115
f 61/348/116 70/347/116 67/346/116
f 62/351/117 69/350/117 70/349/117
f 62/354/118 70/353/118 61/352/118
f 70/357/119 69/356/119 66/355/119
f 67/360/120 70/359/120 66/358/120
o group580215589
g mesh580215589
usemtl mat18
f 73/363/121 72/362/121 71/361/121
f 74/366/122 73/365/122 71/364/122
f 77/369/123 76/368/123 75/367/123
f 78/372/124 77/371/124 75/370/124
f 78/375/125 75/374/125 71/373/125
f 72/378/126 78/377/126 71/376/126
f 77/381/127 73/380/127 74/379/127
f 76/384/128 77/383/128 74/382/128
f 76/387/129 74/386/129 71/385/129
f 75/390/130 76/389/130 71/388/130
f 77/393/131 78/392/131 72/391/131
f 73/396/132 77/395/132 72/394/132
