mtllib materials.mtl
v 0.1048051 -0.06389451 -0.04956418
v 0.1251837 -0.02634668 -0.04970491
v 0.1224456 -0.02508914 -0.1104814
v 0.04488517 -0.07592976 -0.1240791
v 0.0460313 -0.09634614 -0.058126
v 0.07002684 0.09314001 -0.05558443
v 0.03521364 0.1585139 -0.05745384
v 0.07370117 0.1123747 -0.1362242
v 0.03633595 -0.04415977 -0.1399786
v 0.1067158 0.05138874 -0.1016476
v 0.04969083 0.02755654 -0.1419596
v 0.03980482 -0.003083944 -0.08272013
v -0.1021643 0.02631283 -0.128374
v -0.09206258 0.04817307 -0.05812606
v -0.02811967 -0.007550955 -0.03853008
v -0.07344315 0.04552484 0.0924181
v -0.05347896 0.06169307 0.1241548
v -0.0460313 0 0.1162522
v 0.09206256 -1.192093E-07 0.1162522
v 0.1134137 0.09141028 0.05274329
v 0.0723689 0.01373744 0.04909149
v -0.0392243 0.0503794 -0.07715854
v -0.1007184 0.117546 -0.07364058
v -0.0642851 0.0939784 0.08910429
v 0.04597105 0.04857707 0.06164181
v 0.03196443 0.09936786 0.09234744
v 0.06956433 -0.009305358 -0.1079043
v -0.09883343 -0.0373503 -0.05284783
v -0.04677632 -0.02894795 0.06336677
v -0.06177749 0.009458423 0.07105502
v 0.09206259 -0.04817307 0.05812606
v 1.490116E-08 0.04817307 -0.1162522
v -0.04603127 0.04817319 -0.1162522
v -0.04603128 1.192093E-07 -0.1162522
v -0.01422363 0.1335515 -0.09638768
v -2.980232E-08 0.09634614 0.1162522
v -0.04603131 0.09634614 0.05812612
v 0.04603127 0.04817307 0.1162522
v -0.01336146 0.04311764 0.07845053
v 0.04603128 -1.192093E-07 0.1162522
v -1.490116E-08 0 0.1162522
v 0.04399924 -0.04664981 0.1153435
v -0.0005548522 -0.07486665 -0.1194011
v -0.04603128 -0.09634626 -0.05812609
v 7.450581E-09 -0.09634626 -0.05812606
v -0.03014021 -0.04794562 -0.1219932
v 0.02659285 -0.02417946 -0.1416785
v -0.005292863 0.1602596 0.05276021
v 0.002754509 -0.01174414 -0.07971501
v -0.04180401 -0.01271725 -0.06522802
v -0.04721618 -0.04632235 0.1120631
v -0.0578591 0.06356561 0.05779406
v 0.1358203 0.03547442 -0.007701427
v 0.09206259 0 -0.05812609
v 0.1004065 -0.06777906 0.007509381
v 0.07617804 -0.02018332 -0.0001726151
v 0.0460313 -0.09634614 2.980232E-08
v 0.04603127 -0.09634626 0.05812612
v -7.450581E-09 -0.09634626 0
v -1.490116E-08 -0.09634626 0.05812609
v -0.04603129 -0.09634626 0
v -0.0460313 -0.09634626 0.05812609
v -0.05235437 -0.05040789 -0.007946074
v -0.09435342 -0.04749179 0.07121399
v -0.1178452 0.004554033 0.01945555
v -0.09206259 0 0.05812609
v -0.1334435 0.04157043 -0.01764604
v -0.0920626 0.04817307 0.05812612
v -0.1128522 0.1572902 -0.0181962
v -0.04769047 0.07954168 -0.04195863
v 7.450581E-09 0.09634626 -0.05812603
v -0.03086279 0.1171294 0.0004309118
v 0.0460313 0.09634626 0
v 0.0969266 0.1129566 -0.00264886
v 0.09206259 0.04817307 -0.05812609
v 0.09206258 0.04817307 -2.980232E-08
v 0.08470154 -0.07761919 0.04855382
v 0.09063074 -0.03782153 0.1070262
v 0.002610192 -0.05476618 0.1435878
v 0.0333556 0.07466817 0.05546191
v 0.06973758 0.07446229 -0.09773889
v -0.0003423989 0.05788422 -0.07227337
vn 0.8777462 -0.4765718 -0.0494049
vn 0.4953832 -0.8273553 -0.264724
vn 0.8706866 0.4679885 0.1512998
vn 0.3708104 -0.3339135 -0.8666034
vn 0.5453965 -0.7781575 -0.31147
vn -0.6770665 -0.6694324 0.3056816
vn -0.7925143 -0.170672 0.5854846
vn 0.8398195 -0.4280919 -0.3338272
vn 0.6056766 -0.1182466 -0.7868758
vn -0.319537 -0.2446023 -0.9154593
vn -0.8719346 0.1955023 0.4488975
vn 0.367568 -0.4048089 0.8372715
vn -0.2969572 0.7843211 -0.5446622
vn -0.4110293 0.688014 0.5980734
vn -0.890621 -0.3934968 0.2279354
vn 0.9382983 0.2662691 -0.2206744
vn 6.474345E-07 -6.186511E-07 -1
vn 1.246678E-06 0.2266114 -0.9739853
vn -0.05520157 0.9975178 0.04371529
vn -0.4564589 -0.4361647 0.7755035
vn -3.178654E-12 -1.237299E-06 1
vn -5.043183E-08 -0.01947367 0.9998104
vn 2.193173E-07 -0.943698 -0.330808
vn -0.3292736 0.003929045 -0.9442264
vn -0.5321993 -0.7124718 -0.4573267
vn -0.3950638 0.1728447 -0.9022468
vn 0.4089471 0.6599599 0.63025
vn 0.964154 0.2653416 0.0008998525
vn 0 -1.237299E-06 1
vn 0 -0.01947367 0.9998104
vn 2.836803E-06 -0.9552764 -0.2957145
vn -0.1039845 -0.3529766 -0.9298358
vn -0.2399674 0.9298465 -0.2789282
vn 0.2110831 -6.21035E-07 -0.9774681
vn -0.3818181 -0.9037302 -0.1936146
vn -0.6425802 -0.5252033 -0.5578997
vn 0 -0.0900643 0.9959359
vn 0 -0.1270586 0.9918952
vn -0.3167403 0.6469899 0.6935991
vn -0.830653 0.3044367 -0.4661909
vn -0.9377099 0.3154979 0.1454691
vn 0.5208468 0.4166209 -0.7450809
vn 0.8926157 0.4499994 -0.02716068
vn 0.4650905 -0.8852631 -1.577103E-06
vn 0 -1 0
vn 2.589745E-06 -1 -2.050873E-06
vn 0 -1 0
vn 0 -1 0
vn -0.9906598 -0.136357 -1.869181E-07
vn -0.7105299 -0.607795 -0.3545878
vn -0.5488837 -0.7900931 0.2729095
vn -0.8776488 -4.42636E-07 0.4793044
vn -0.2297085 0.5280682 0.8175439
vn -0.4332585 0.7528118 -0.4955415
vn -0.7182624 0.4006953 0.5688078
vn 0.9971933 -0.07487037 2.617752E-07
vn 1 0 2.563594E-07
vn 0.947725 0 0.3190884
vn 0.8581528 0.4025199 0.3186714
vn -0.1743083 0.6517955 0.7380916
vn -0.7048763 0.4055557 -0.581957
vn -0.01441064 0.7141778 0.6998159
vn -0.9830164 -0.1471713 -0.1096326
vn -0.4384488 -0.700939 -0.5625364
vn -0.5487477 -0.2573174 -0.7954017
vn -0.9906598 -0.136357 -1.95045E-07
vn 0 -1 0
vn 0 -1 0
vn 2.589744E-06 -1 6.639051E-13
vn 2.589745E-06 -1 0
vn 0.4650904 -0.8852633 0
vn 0.6660957 0.4366695 0.6046787
vn 0.6296199 0.6610573 -0.4081447
vn 0.5791106 0.2951151 0.7599592
vn 0.9598296 -0.2674849 0.084728
vn 0.4655585 -0.6599211 0.5897112
vn -2.832539E-07 -0.8992181 0.4375007
vn 0 -0.7332034 0.6800095
vn -0.4920095 -0.6436818 0.5861743
vn -0.4463253 0.2576933 0.8569643
vn -0.8788126 -4.311195E-07 0.477167
vn -0.3916654 0.8763606 0.2803396
vn -0.8440122 0.5355403 -0.02898186
vn 0.1882996 0.7107283 -0.6777968
vn -0.1859332 0.7954389 -0.5768065
vn 0.3169081 0.7120155 0.6265805
vn 0.5576467 -0.7637842 -0.3250598
vn 0.2863106 0.9581118 0.006925688
vn 0.1391696 0.5954537 -0.7912438
vn -0.5393351 0.4061754 -0.7376578
vn 0.8301802 -0.4787064 -0.2857288
vn -0.8005791 -0.4262243 -0.4211959
vn 0.8586345 0.3904448 -0.3321138
vn 0.05188055 -0.5181901 -0.8536905
vn 0.4657223 -0.4450173 -0.7648937
vn 0.2895461 0.9538128 -0.08002565
vn -0.1957149 -0.3048327 -0.9320797
vn -0.9492136 -0.3146324 0.0002211876
vn -0.4299459 0.7248963 -0.5382118
vn 0.1843202 -0.7474799 -0.6382005
vn -0.5110638 -0.6190599 -0.5963041
vn -0.05600434 -0.9423752 -0.3298371
vn 0.4658812 0.807805 -0.3611174
vn 0.9966881 -0.07666187 0.02712797
vn 0.4507143 0.6122846 0.6495877
vn 0.7495092 0.3972251 -0.5295736
vn 0.7553485 0.3871214 -0.5287586
vn -0.282913 0.9134917 0.2923923
vn 0.6814901 -0.02125715 0.7315185
vn -0.1886738 0.8126838 -0.5513141
vn 0.8895501 0.3943954 -0.2305491
vn 0.8500457 0.3948384 0.3486043
vn 0.4976012 0.4754778 0.725475
vn 0.7229905 0.6908446 0.004313576
vn -0.2753552 0.5910662 0.7581691
vn 0.8833386 -0.4680096 0.02607324
vn 0.2479378 -0.8123845 0.5277861
vn 0.2141932 -0.2391303 0.9470681
vn 0.9981063 -0.04736047 0.03925128
vn 0.9090005 -0.3156975 0.2721272
vn 0.4242796 -0.9038981 -0.05436017
vn 0.4857011 -0.8738469 -0.02204363
vn 0.8784061 -0.4766126 0.0352583
vn 0.5667242 -0.671814 -0.4769587
vn 0.5707667 -0.5263813 0.6301968
vn 0.1104538 0.7652358 -0.6342036
vn 0.5155646 -0.637759 0.5722383
vn -0.3989477 -0.8197068 0.4110006
vn -0.4468896 0.3823758 0.8087512
vn 0.4560078 0.4147614 0.7874197
vn -0.2982161 0.8998409 0.3183609
vn -0.9996732 0.02556239 9.066263E-05
vn 0.2049652 -0.1145283 0.9720456
vn -0.1801009 -0.5437717 0.8196805
vn -0.8823098 -0.4159023 0.2203511
vn -0.881435 -0.08549178 -0.4645036
vn -0.6328485 -0.6091672 0.4779311
vn -0.4082604 0.671876 0.6179856
vn -0.4420765 -0.721048 -0.5335336
vn -0.7986175 0.2235411 0.5587839
vn -0.703938 0.1219332 -0.6997168
vn -0.8724101 0.1574378 0.4627245
vn -0.9285344 0.1523455 -0.3385479
vn -0.6383206 0.2228537 0.736806
vn 0.06239659 0.6890061 0.7220647
vn -0.2243398 -0.1550017 -0.962105
vn 0.6719828 0.6636432 -0.3286591
vn -0.3649313 0.9309695 0.01100354
vn -0.1391104 0.9510519 -0.2759505
vn -0.672861 0.7212472 -0.1645005
vn 0.9847992 0.1710677 -0.03010666
vn -0.7299978 0.241651 -0.6393028
vn 0.9589834 0.09029602 -0.2686959
vn 0.32999 0.8571305 0.3955174
vn 0.4394469 0.5783648 -0.6872995
vn 0.2545131 0.9458323 -0.2015546
vn -0.6863828 0.4831356 0.543561
vn 0.4763047 -0.5854583 0.6560277
vn 0.7178408 0.5712937 0.3979046
vn -0.5002258 0.4779848 0.7220144
vt 0.5349302 0.5499316
vt 0.5356376 0.5519472
vt 0.5327667 0.5529547
vt 0.5103579 0.5354931
vt 0.5135114 0.5340877
vt 0.5148687 0.5371876
vt 0.5567424 0.4856124
vt 0.5604442 0.485473
vt 0.5577586 0.4896352
vt 0.4682221 0.5496301
vt 0.4659057 0.5455983
vt 0.4676256 0.5449817
vt 0.5102746 0.5454594
vt 0.5074608 0.543073
vt 0.5101534 0.5410445
vt 0.5246466 0.4512478
vt 0.5283136 0.4506647
vt 0.5295266 0.4548448
vt 0.5331003 0.5632508
vt 0.5323216 0.565138
vt 0.5302211 0.5628147
vt 0.5246327 0.5591731
vt 0.5218692 0.5641205
vt 0.52112 0.5597885
vt 0.4662483 0.5593926
vt 0.462419 0.559983
vt 0.4645528 0.5561158
vt 0.4428575 0.522843
vt 0.4384753 0.5215945
vt 0.441791 0.520243
vt 0.4910517 0.5668421
vt 0.4914784 0.5692762
vt 0.4893835 0.568019
vt 0.5658734 0.5268517
vt 0.5689224 0.5268698
vt 0.5666352 0.5307983
vt 0.4513196 0.5203416
vt 0.4501191 0.5187746
vt 0.4536433 0.5186183
vt 0.5161245 0.537389
vt 0.5101623 0.538487
vt 0.5118237 0.5349552
vt 0.4361473 0.503548
vt 0.4341629 0.5042265
vt 0.433664 0.5018387
vt 0.5546086 0.5394805
vt 0.5519624 0.5418712
vt 0.5509018 0.5387679
vt 0.4417579 0.5339194
vt 0.4407286 0.5318608
vt 0.442883 0.5307837
vt 0.4336564 0.530804
vt 0.437119 0.5276815
vt 0.4379849 0.5298139
vt 0.4760495 0.4998831
vt 0.4784322 0.4973315
vt 0.4795719 0.4987269
vt 0.5683922 0.5263249
vt 0.5654683 0.5279216
vt 0.5656736 0.5243984
vt 0.5572129 0.535978
vt 0.5550585 0.5349008
vt 0.5560878 0.5328422
vt 0.5567084 0.5327393
vt 0.5556908 0.5348037
vt 0.5536432 0.533681
vt 0.4954867 0.5070397
vt 0.4973668 0.5035503
vt 0.4984001 0.5056069
vt 0.440119 0.5251925
vt 0.4426478 0.5249355
vt 0.4428517 0.5281582
vt 0.4632162 0.49386
vt 0.4618143 0.491229
vt 0.4654647 0.4913482
vt 0.435907 0.5329081
vt 0.437223 0.5280967
vt 0.4393694 0.5301657
vt 0.537765 0.4993164
vt 0.5379722 0.4973257
vt 0.5418316 0.4996636
vt 0.5688718 0.5132008
vt 0.5658232 0.5131503
vt 0.5672196 0.5108038
vt 0.5572129 0.535978
vt 0.5540292 0.5369594
vt 0.5550585 0.5349008
vt 0.5556908 0.5348037
vt 0.5546731 0.536868
vt 0.5536432 0.533681
vt 0.4982928 0.5081108
vt 0.500408 0.5045781
vt 0.5014191 0.5066457
vt 0.4536034 0.5296035
vt 0.4552951 0.5270259
vt 0.4564241 0.5290121
vt 0.4634601 0.5136769
vt 0.4637766 0.511795
vt 0.4666578 0.5135571
vt 0.4435413 0.5368862
vt 0.4431053 0.5338449
vt 0.445648 0.5357184
vt 0.4880783 0.4797601
vt 0.4857833 0.4775902
vt 0.4904556 0.4786173
vt 0.451911 0.4992831
vt 0.4505091 0.4945858
vt 0.4542423 0.4959289
vt 0.5597983 0.5300497
vt 0.5588264 0.532136
vt 0.5577152 0.529014
vt 0.5637841 0.5305136
vt 0.5598503 0.531674
vt 0.5607958 0.5295756
vt 0.5176215 0.5365736
vt 0.5151126 0.5390013
vt 0.5153052 0.5357965
vt 0.4333807 0.5301116
vt 0.4355837 0.5302252
vt 0.4344582 0.5315555
vt 0.4686688 0.5625628
vt 0.4689894 0.5581268
vt 0.4709426 0.5584923
vt 0.439243 0.5296995
vt 0.4406831 0.5262044
vt 0.4423569 0.527566
vt 0.5504509 0.4783134
vt 0.5514854 0.4757698
vt 0.5531254 0.4786674
vt 0.5291061 0.526141
vt 0.5318745 0.5252565
vt 0.5303984 0.5289522
vt 0.5200612 0.4973925
vt 0.5227982 0.496415
vt 0.5235723 0.4985825
vt 0.5200611 0.4973927
vt 0.5235723 0.4985827
vt 0.5208353 0.4995602
vt 0.5192871 0.495225
vt 0.5220241 0.4942476
vt 0.5227982 0.496415
vt 0.5192871 0.495225
vt 0.5227982 0.496415
vt 0.5200612 0.4973925
vt 0.4428748 0.5299512
vt 0.4421681 0.5259776
vt 0.4442284 0.5280274
vt 0.457838 0.4806347
vt 0.4579457 0.4761531
vt 0.4609072 0.4780138
vt 0.5285702 0.45713
vt 0.5307267 0.4580255
vt 0.5277563 0.4615447
vt 0.5064231 0.5683882
vt 0.5024298 0.5700607
vt 0.5016714 0.5677745
vt 0.5368246 0.5368708
vt 0.5302467 0.5360408
vt 0.5306352 0.534206
vt 0.4469555 0.5213597
vt 0.4471157 0.5240092
vt 0.4441336 0.5222369
vt 0.507677 0.5625521
vt 0.5078847 0.5661186
vt 0.5042299 0.5639166
vt 0.5541961 0.5498768
vt 0.5501243 0.5485859
vt 0.5525913 0.5470495
vt 0.5551826 0.543243
vt 0.5528177 0.5449322
vt 0.5514177 0.5429723
vt 0.5614974 0.5302502
vt 0.5602356 0.5321752
vt 0.55958 0.5287923
vt 0.5597534 0.4979568
vt 0.5569886 0.5002772
vt 0.5572466 0.4979899
vt 0.5236554 0.5376332
vt 0.5244021 0.5350592
vt 0.5282958 0.5368047
vt 0.4381804 0.5331289
vt 0.4406714 0.5379523
vt 0.4361036 0.5360358
vt 0.528985 0.5207757
vt 0.531401 0.5241906
vt 0.5287493 0.5234195
vt 0.4347027 0.5294552
vt 0.4313952 0.5284244
vt 0.4370568 0.5267573
vt 0.460215 0.4941686
vt 0.4603257 0.4912576
vt 0.4643254 0.4956002
vt 0.4431985 0.5144874
vt 0.4406249 0.5097678
vt 0.4445595 0.5119289
vt 0.4428748 0.5299512
vt 0.4442284 0.5280274
vt 0.4462887 0.5300772
vt 0.5165501 0.4962026
vt 0.5192871 0.495225
vt 0.5200612 0.4973925
vt 0.5165501 0.4962026
vt 0.5200612 0.4973925
vt 0.5173242 0.49837
vt 0.5173243 0.4983702
vt 0.5200613 0.4973927
vt 0.5208353 0.4995602
vt 0.5173243 0.4983702
vt 0.5208353 0.4995602
vt 0.5180984 0.5005376
vt 0.5263377 0.5270255
vt 0.5291061 0.526141
vt 0.5303985 0.5289522
vt 0.5470947 0.5027148
vt 0.5497899 0.5028346
vt 0.5486227 0.5061316
vt 0.454181 0.4727895
vt 0.456682 0.4715973
vt 0.4542894 0.4749444
vt 0.5549092 0.5130925
vt 0.5544716 0.5174649
vt 0.5516986 0.5124228
vt 0.5499735 0.5417945
vt 0.5535108 0.5420811
vt 0.5511404 0.5428764
vt 0.5556985 0.5228589
vt 0.5594878 0.5229606
vt 0.5558404 0.5250553
vt 0.546851 0.4995167
vt 0.5515916 0.4991625
vt 0.5470855 0.5018063
vt 0.5571218 0.5064601
vt 0.5607933 0.5066876
vt 0.5569424 0.5087547
vt 0.5607831 0.4922416
vt 0.5619785 0.4951228
vt 0.5583212 0.4947259
vt 0.5346936 0.5469059
vt 0.5339201 0.5484344
vt 0.5327713 0.5453616
vt 0.5020813 0.5700795
vt 0.5001856 0.5705594
vt 0.5013335 0.5677899
vt 0.4868882 0.5262946
vt 0.4854982 0.524718
vt 0.4874418 0.5245027
vt 0.4561538 0.5471858
vt 0.4583758 0.5494306
vt 0.4550265 0.5508139
vt 0.4335205 0.5035596
vt 0.4367563 0.5019283
vt 0.4378743 0.5057508
vt 0.4415423 0.5139534
vt 0.4445769 0.5169287
vt 0.4411772 0.5180289
vt 0.5311393 0.5065717
vt 0.5297576 0.5084234
vt 0.529227 0.5040612
vt 0.5126796 0.54224
vt 0.510009 0.5448261
vt 0.508182 0.5405104
vt 0.4917369 0.4842965
vt 0.4907334 0.4868701
vt 0.4878961 0.4857715
vt 0.4438669 0.5136852
vt 0.4431175 0.5182743
vt 0.4418917 0.5157989
vt 0.4408 0.528918
vt 0.4420577 0.5304393
vt 0.4398221 0.5332249
vt 0.5178122 0.5610403
vt 0.5168672 0.5575958
vt 0.5195934 0.5580905
vt 0.4491297 0.500383
vt 0.4474962 0.5012013
vt 0.4463828 0.501255
vt 0.4817437 0.5571097
vt 0.4825225 0.5563121
vt 0.4837105 0.5596337
vt 0.4607098 0.5320488
vt 0.463771 0.530328
vt 0.464361 0.5321429
vt 0.4731679 0.5468413
vt 0.4759293 0.5482581
vt 0.4729822 0.5501676
vt 0.4878796 0.4816583
vt 0.4854084 0.4793563
vt 0.4879855 0.4776269
vt 0.4523481 0.5250497
vt 0.4506528 0.527625
vt 0.4504514 0.5244021
vt 0.4382535 0.509581
vt 0.4411076 0.511412
vt 0.4386856 0.5121831
vt 0.4519945 0.5210371
vt 0.4486595 0.5204234
vt 0.4488661 0.517263
vt 0.4812014 0.5229869
vt 0.4815819 0.5261312
vt 0.476862 0.5253515
vt 0.4598033 0.5005772
vt 0.4579474 0.4998204
vt 0.4605696 0.4966884
vt 0.4948375 0.5060748
vt 0.4939792 0.5039576
vt 0.4968802 0.5024999
vt 0.460835 0.4722632
vt 0.463098 0.4727034
vt 0.4633209 0.4748801
vt 0.5500072 0.5518538
vt 0.5505535 0.5492011
vt 0.5528252 0.5488084
vt 0.5416608 0.5087078
vt 0.5434367 0.5074295
vt 0.545507 0.5091758
vt 0.4387204 0.5329604
vt 0.4392499 0.5298756
vt 0.4417557 0.5299549
vt 0.4366963 0.5323209
vt 0.4403921 0.5325739
vt 0.4400036 0.5356796
vt 0.4909195 0.5253315
vt 0.4901483 0.5278983
vt 0.4885012 0.5234827
vt 0.5662718 0.522167
vt 0.5659774 0.5268705
vt 0.5632291 0.525134
vt 0.4404354 0.5132983
vt 0.4426538 0.5133992
vt 0.4422412 0.5174701
vt 0.571018 0.5068527
vt 0.5670167 0.5043917
vt 0.5689647 0.5033255
vt 0.5606263 0.4964761
vt 0.5600424 0.4934886
vt 0.5647267 0.4938411
vt 0.5511237 0.5040632
vt 0.5507101 0.5060214
vt 0.5479532 0.505086
vt 0.5155179 0.4515745
vt 0.5173685 0.4535823
vt 0.5130544 0.4538173
vt 0.5164832 0.540151
vt 0.5208024 0.5400507
vt 0.520582 0.5440641
vt 0.5445415 0.5483135
vt 0.5463801 0.552307
vt 0.5430239 0.5510805
vt 0.5558422 0.5144938
vt 0.5557921 0.5169024
vt 0.55225 0.5166818
vt 0.5625252 0.5302872
vt 0.5607243 0.5295448
vt 0.5612444 0.5271924
vt 0.5549564 0.5377641
vt 0.5572405 0.5367473
vt 0.558723 0.5380107
vt 0.5533326 0.5373675
vt 0.5546718 0.5355573
vt 0.5559428 0.5365149
vt 0.5284991 0.5239235
vt 0.5286981 0.5261154
vt 0.5270216 0.5276186
vt 0.5296946 0.5304196
vt 0.5270621 0.5315594
vt 0.5256348 0.5284911
vt 0.5399369 0.5493523
vt 0.5391261 0.547376
vt 0.5416588 0.5460289
vt 0.5050086 0.5513319
vt 0.5047339 0.5472448
vt 0.507951 0.5463867
vt 0.5561005 0.5320383
vt 0.5583032 0.5293216
vt 0.559701 0.533172
vt 0.4459085 0.5070927
vt 0.4429435 0.5094376
vt 0.442138 0.5072721
vt 0.5603733 0.5218862
vt 0.5594544 0.524252
vt 0.555665 0.5241506
vt 0.5479814 0.4770807
vt 0.5495687 0.4796007
vt 0.5448437 0.4801232
vt 0.5233524 0.5493477
vt 0.5207785 0.5476869
vt 0.5232567 0.5460352
vt 0.5460709 0.5089266
vt 0.5464962 0.5064244
vt 0.5491347 0.5079805
vt 0.4901404 0.519641
vt 0.4878153 0.5185107
vt 0.4905966 0.5170985
vt 0.4423719 0.5392852
vt 0.4438474 0.5374867
vt 0.4453728 0.539574
vt 0.5629494 0.5247407
vt 0.5608532 0.5246778
vt 0.5610044 0.5220991
vt 0.5679489 0.5144346
vt 0.5657745 0.5145041
vt 0.5654173 0.5128287
vt 0.4362295 0.4837357
vt 0.4360591 0.4861691
vt 0.4339677 0.4855698
vt 0.4345008 0.5134329
vt 0.4362734 0.5117188
vt 0.4385857 0.5155594
vt 0.5517524 0.4818888
vt 0.5540193 0.4786327
vt 0.5551647 0.4817239
vt 0.5101568 0.5365169
vt 0.513281 0.5354648
vt 0.5116405 0.5390063
vt 0.4619734 0.489294
vt 0.4645857 0.4884872
vt 0.4659046 0.4936986
vt 0.5048484 0.5628102
vt 0.5070968 0.56218
vt 0.5096211 0.5632304
vt 0.4290039 0.5243642
vt 0.4336831 0.5208084
vt 0.4348395 0.5234822
vt 0.4952639 0.5675287
vt 0.4993929 0.5662267
vt 0.5002718 0.5720376
vt 0.4346802 0.5288636
vt 0.4352821 0.5308775
vt 0.43308 0.5307466
vt 0.525656 0.56128
vt 0.5250108 0.5596614
vt 0.5315498 0.5607564
vt 0.5365215 0.5170844
vt 0.5354205 0.5214918
vt 0.5330288 0.5180597
vt 0.4386239 0.5299284
vt 0.4373987 0.5255539
vt 0.4417824 0.5267972
vt 0.4639076 0.4485291
vt 0.4669048 0.4502666
vt 0.4653398 0.4535379
vt 0.4792776 0.5210665
vt 0.4773074 0.5208079
vt 0.4807771 0.5183849
vt 0.4678858 0.5015414
vt 0.4645466 0.5041413
vt 0.4641774 0.5013554
vt 0.4619262 0.5432539
vt 0.4605039 0.5378382
vt 0.4627023 0.5383265
vt 0.5567222 0.535855
vt 0.5586119 0.5346302
vt 0.5604967 0.5381935
vt 0.4352054 0.5308218
vt 0.4371474 0.5301678
vt 0.4374641 0.5357583
vt 0.5280216 0.5673301
vt 0.5286594 0.5633498
vt 0.5296836 0.5651247
vt 0.5191032 0.4858974
vt 0.5250026 0.485442
vt 0.521255 0.4882097
vt 0.4324584 0.5049974
vt 0.4304837 0.5007778
vt 0.4349656 0.5034333
vt 0.4703787 0.4808381
vt 0.4712848 0.4769598
vt 0.4737819 0.4793677
vt 0.501188 0.5581365
vt 0.5014626 0.5619256
vt 0.49771 0.5594199
vt 0.5666191 0.5246266
vt 0.5634843 0.5234976
vt 0.5659471 0.521487
vt 0.5480184 0.4786423
vt 0.546851 0.4815996
vt 0.5442405 0.4802388
vt 0.513614 0.5495387
vt 0.5163716 0.5505694
vt 0.5136948 0.5528693
o group16827598
g mesh16827598
usemtl mat10
f 3/3/1 2/2/1 1/1/1
f 1/6/2 5/5/2 4/4/2
f 8/9/3 7/8/3 6/7/3
f 4/12/4 9/11/4 3/10/4
f 12/15/5 11/14/5 10/13/5
f 15/18/6 14/17/6 13/16/6
f 18/21/7 17/20/7 16/19/7
f 21/24/8 20/23/8 19/22/8
f 11/27/9 8/26/9 10/25/9
f 14/30/10 23/29/10 22/28/10
f 17/33/11 24/32/11 16/31/11
f 20/36/12 26/35/12 25/34/12
f 9/39/13 12/38/13 27/37/13
f 28/42/14 15/41/14 13/40/14
f 18/45/15 30/44/15 29/43/15
f 31/48/16 21/47/16 19/46/16
f 34/51/17 33/50/17 32/49/17
f 32/54/18 33/53/18 35/52/18
f 37/57/19 24/56/19 36/55/19
f 39/60/20 38/59/20 36/58/20
f 41/63/21 40/62/21 38/61/21
f 42/66/22 40/65/22 41/64/22
f 45/69/23 44/68/23 43/67/23
f 47/72/24 46/71/24 34/70/24
f 12/75/25 32/74/25 11/73/25
f 11/78/26 32/77/26 8/76/26
f 48/81/27 36/80/27 26/79/27
f 38/84/28 25/83/28 26/82/28
f 40/87/29 19/86/29 38/85/29
f 42/90/30 19/89/30 40/88/30
f 5/93/31 45/92/31 4/91/31
f 4/96/32 43/95/32 47/94/32
f 47/99/33 49/98/33 12/97/33
f 34/102/34 13/101/34 33/100/34
f 50/105/35 13/104/35 34/103/35
f 44/108/36 28/107/36 46/106/36
f 51/111/37 41/110/37 18/109/37
f 18/114/38 41/113/38 17/112/38
f 17/117/39 36/116/39 24/115/39
f 37/120/40 52/119/40 24/118/40
f 33/123/41 22/122/41 35/121/41
f 2/126/42 54/125/42 53/124/42
f 56/129/43 31/128/43 55/127/43
f 55/132/44 58/131/44 57/130/44
f 58/135/45 60/134/45 59/133/45
f 57/138/46 58/137/46 59/136/46
f 60/141/47 62/140/47 61/139/47
f 59/144/48 60/143/48 61/142/48
f 61/147/49 62/146/49 63/145/49
f 62/150/50 64/149/50 63/148/50
f 63/153/51 66/152/51 65/151/51
f 66/156/52 68/155/52 67/154/52
f 68/159/53 52/158/53 69/157/53
f 72/162/54 71/161/54 70/160/54
f 73/165/55 7/164/55 71/163/55
f 76/168/56 75/167/56 74/166/56
f 54/171/57 75/170/57 76/169/57
f 54/174/58 10/173/58 75/172/58
f 75/177/59 10/176/59 6/175/59
f 7/180/60 73/179/60 74/178/60
f 7/183/61 8/182/61 71/181/61
f 71/186/62 35/185/62 70/184/62
f 14/189/63 69/188/63 23/187/63
f 15/192/64 67/191/64 14/190/64
f 63/195/65 65/194/65 15/193/65
f 44/198/66 61/197/66 63/196/66
f 59/201/67 61/200/67 44/199/67
f 45/204/68 59/203/68 44/202/68
f 57/207/69 59/206/69 45/205/69
f 5/210/70 57/209/70 45/208/70
f 55/213/71 57/212/71 5/211/71
f 2/216/72 56/215/72 55/214/72
f 2/219/73 27/218/73 54/217/73
f 31/222/74 53/221/74 21/220/74
f 31/225/75 78/224/75 77/223/75
f 77/228/76 42/227/76 58/226/76
f 58/231/77 79/230/77 60/229/77
f 60/234/78 51/233/78 62/232/78
f 62/237/79 51/236/79 64/235/79
f 64/240/80 30/239/80 66/238/80
f 66/243/81 16/242/81 68/241/81
f 68/246/82 16/245/82 52/244/82
f 48/249/83 72/248/83 37/247/83
f 73/252/84 72/251/84 48/250/84
f 20/255/85 76/254/85 80/253/85
f 21/258/86 53/257/86 76/256/86
f 4/261/87 3/260/87 1/259/87
f 2/264/88 3/263/88 27/262/88
f 27/267/89 3/266/89 9/265/89
f 10/270/90 27/269/90 12/268/90
f 54/273/91 27/272/91 10/271/91
f 47/276/92 9/275/92 4/274/92
f 12/279/93 9/278/93 47/277/93
f 12/282/94 49/281/94 32/280/94
f 32/285/95 49/284/95 34/283/95
f 34/288/96 49/287/96 47/286/96
f 46/291/97 47/290/97 43/289/97
f 34/294/98 46/293/98 50/292/98
f 28/297/99 50/296/99 46/295/99
f 13/300/100 50/299/100 28/298/100
f 44/303/101 46/302/101 43/301/101
f 45/306/102 43/305/102 4/304/102
f 10/309/103 81/308/103 6/307/103
f 6/312/104 81/311/104 8/310/104
f 8/315/105 81/314/105 10/313/105
f 75/318/106 6/317/106 74/316/106
f 74/321/107 6/320/107 7/319/107
f 80/324/108 74/323/108 73/322/108
f 76/327/109 74/326/109 80/325/109
f 20/330/110 80/329/110 26/328/110
f 26/333/111 80/332/111 48/331/111
f 48/336/112 80/335/112 73/334/112
f 38/339/113 26/338/113 36/337/113
f 19/342/114 25/341/114 38/340/114
f 20/345/115 25/344/115 19/343/115
f 76/348/116 20/347/116 21/346/116
f 77/351/117 78/350/117 42/349/117
f 42/354/118 78/353/118 19/352/118
f 19/357/119 78/356/119 31/355/119
f 31/360/120 77/359/120 55/358/120
f 55/363/121 77/362/121 58/361/121
f 5/366/122 1/365/122 55/364/122
f 55/369/123 1/368/123 2/367/123
f 31/372/124 56/371/124 53/370/124
f 53/375/125 56/374/125 2/373/125
f 76/378/126 53/377/126 54/376/126
f 58/381/127 42/380/127 79/379/127
f 60/384/128 79/383/128 51/382/128
f 51/387/129 79/386/129 41/385/129
f 41/390/130 79/389/130 42/388/130
f 64/393/131 51/392/131 29/391/131
f 29/396/132 51/395/132 18/394/132
f 64/399/133 29/398/133 30/397/133
f 66/402/134 30/401/134 16/400/134
f 16/405/135 30/404/135 18/403/135
f 63/408/136 64/407/136 66/406/136
f 63/411/137 28/410/137 44/409/137
f 15/414/138 28/413/138 63/412/138
f 15/417/139 65/416/139 67/415/139
f 67/420/140 65/419/140 66/418/140
f 14/423/141 67/422/141 69/421/141
f 69/426/142 67/425/142 68/424/142
f 24/429/143 52/428/143 16/427/143
f 69/432/144 52/431/144 37/430/144
f 70/435/145 35/434/145 23/433/145
f 22/438/146 23/437/146 35/436/146
f 70/441/147 23/440/147 69/439/147
f 13/444/148 22/443/148 33/442/148
f 14/447/149 22/446/149 13/445/149
f 32/450/150 82/449/150 8/448/150
f 35/453/151 82/452/151 32/451/151
f 8/456/152 82/455/152 71/454/152
f 71/459/153 82/458/153 35/457/153
f 72/462/154 69/461/154 37/460/154
f 70/465/155 69/464/155 72/463/155
f 71/468/156 72/467/156 73/466/156
f 36/471/157 48/470/157 37/469/157
f 17/474/158 39/473/158 36/472/158
f 41/477/159 39/476/159 17/475/159
f 38/480/160 39/479/160 41/478/160
